<?xml version="1.0" encoding="UTF-8"?>
<svg xmlns="http://www.w3.org/2000/svg" xmlns:xlink="http://www.w3.org/1999/xlink" width="15pt" height="20pt" viewBox="0 0 15 20" version="1.1">
<g id="surface1">
<path style=" stroke:none;fill-rule:nonzero;fill:rgb(0%,0%,0%);fill-opacity:1;" d="M 14.988281 6.875 C 14.96875 6.796875 14.945312 6.71875 14.925781 6.644531 C 14.878906 6.472656 14.835938 6.3125 14.804688 6.152344 C 14.765625 5.964844 14.738281 5.777344 14.707031 5.582031 C 14.699219 5.523438 14.6875 5.464844 14.679688 5.410156 C 14.652344 5.230469 14.628906 5.046875 14.605469 4.867188 C 14.59375 4.796875 14.585938 4.726562 14.574219 4.65625 C 14.558594 4.539062 14.542969 4.417969 14.523438 4.300781 C 14.503906 4.167969 14.484375 4.03125 14.464844 3.898438 C 14.453125 3.789062 14.441406 3.675781 14.433594 3.558594 C 14.421875 3.417969 14.410156 3.277344 14.390625 3.128906 C 14.367188 2.964844 14.339844 2.800781 14.308594 2.644531 C 14.292969 2.554688 14.277344 2.460938 14.261719 2.371094 L 14.257812 2.347656 C 14.230469 2.117188 14.203125 1.898438 14.160156 1.675781 C 14.152344 1.632812 14.144531 1.589844 14.136719 1.546875 C 14.105469 1.359375 14.070312 1.164062 14.015625 0.964844 C 13.96875 0.800781 13.902344 0.648438 13.839844 0.503906 C 13.835938 0.496094 13.835938 0.492188 13.832031 0.484375 C 13.832031 0.472656 13.832031 0.464844 13.832031 0.453125 C 13.835938 0.292969 13.765625 0.1875 13.703125 0.128906 C 13.640625 0.0703125 13.53125 0 13.363281 0.0078125 C 13.304688 0.0078125 13.246094 0.0195312 13.195312 0.0390625 C 13.128906 0.0703125 13.074219 0.105469 13.03125 0.148438 C 12.8125 0.210938 12.5625 0.214844 12.289062 0.214844 C 12.050781 0.214844 11.859375 0.402344 11.859375 0.632812 C 11.859375 0.9375 11.882812 1.25 11.933594 1.554688 C 11.960938 1.71875 11.996094 1.878906 12.03125 2.03125 C 12.058594 2.160156 12.085938 2.28125 12.109375 2.402344 C 12.15625 2.664062 12.175781 2.941406 12.1875 3.199219 C 12.1875 3.203125 12.1875 3.207031 12.1875 3.207031 C 12.207031 3.460938 12.230469 3.710938 12.25 3.949219 L 12.265625 4.136719 C 12.296875 4.460938 12.339844 4.785156 12.375 5.058594 C 12.394531 5.34375 12.449219 5.601562 12.503906 5.851562 C 12.511719 5.890625 12.519531 5.929688 12.527344 5.96875 C 12.503906 5.9375 12.476562 5.898438 12.453125 5.863281 C 12.378906 5.753906 12.308594 5.632812 12.238281 5.503906 C 12.1875 5.414062 12.132812 5.320312 12.078125 5.226562 C 12.042969 5.171875 12.007812 5.117188 11.972656 5.058594 C 11.878906 4.90625 11.777344 4.746094 11.6875 4.589844 C 11.621094 4.476562 11.554688 4.367188 11.488281 4.257812 C 11.425781 4.152344 11.359375 4.046875 11.296875 3.9375 C 11.183594 3.746094 11.058594 3.535156 10.902344 3.28125 C 10.851562 3.199219 10.804688 3.113281 10.757812 3.023438 C 10.683594 2.886719 10.605469 2.746094 10.511719 2.609375 C 10.511719 2.605469 10.511719 2.605469 10.511719 2.605469 C 10.417969 2.46875 10.320312 2.347656 10.230469 2.230469 C 10.148438 2.125 10.070312 2.027344 9.992188 1.917969 C 9.976562 1.890625 9.960938 1.867188 9.945312 1.84375 C 9.9375 1.828125 9.925781 1.808594 9.917969 1.792969 C 9.90625 1.65625 9.824219 1.527344 9.695312 1.460938 C 9.558594 1.386719 9.390625 1.390625 9.257812 1.472656 C 9.015625 1.621094 8.785156 1.761719 8.546875 1.871094 L 8.378906 1.945312 C 8.203125 2.023438 8.023438 2.105469 7.847656 2.191406 C 7.789062 2.203125 7.734375 2.226562 7.683594 2.261719 C 7.496094 2.390625 7.449219 2.632812 7.566406 2.820312 C 7.636719 2.929688 7.710938 3.03125 7.78125 3.132812 C 7.828125 3.199219 7.875 3.261719 7.917969 3.328125 C 7.957031 3.382812 7.996094 3.445312 8.035156 3.511719 C 8.105469 3.625 8.175781 3.742188 8.269531 3.863281 C 8.3125 3.917969 8.371094 3.964844 8.4375 3.992188 C 8.464844 4.039062 8.488281 4.085938 8.511719 4.132812 C 8.589844 4.273438 8.667969 4.421875 8.753906 4.5625 C 8.820312 4.671875 8.890625 4.777344 8.953125 4.878906 C 9.039062 5.007812 9.117188 5.128906 9.191406 5.253906 C 9.230469 5.320312 9.265625 5.382812 9.304688 5.445312 C 9.40625 5.617188 9.503906 5.773438 9.59375 5.945312 C 9.597656 5.957031 9.605469 5.96875 9.613281 5.980469 C 9.675781 6.074219 9.730469 6.167969 9.789062 6.265625 C 9.851562 6.367188 9.914062 6.472656 9.980469 6.574219 C 10.058594 6.691406 10.140625 6.800781 10.214844 6.910156 C 10.277344 6.992188 10.335938 7.070312 10.386719 7.152344 C 10.414062 7.191406 10.441406 7.234375 10.46875 7.273438 C 10.449219 7.265625 10.429688 7.253906 10.410156 7.246094 C 10.371094 7.167969 10.316406 7.117188 10.28125 7.09375 C 10.261719 7.078125 10.242188 7.066406 10.21875 7.054688 C 10.011719 6.945312 9.824219 6.847656 9.660156 6.738281 C 9.449219 6.597656 9.269531 6.476562 9.105469 6.359375 C 9.046875 6.316406 8.988281 6.273438 8.929688 6.230469 C 8.800781 6.136719 8.671875 6.039062 8.523438 5.949219 C 8.519531 5.945312 8.515625 5.945312 8.515625 5.941406 C 8.207031 5.761719 7.992188 5.628906 7.792969 5.5 C 7.535156 5.335938 7.289062 5.1875 7.035156 5.042969 C 6.777344 4.894531 6.550781 4.777344 6.328125 4.679688 C 6.230469 4.546875 6.097656 4.507812 6.007812 4.496094 C 5.804688 4.382812 5.636719 4.4375 5.550781 4.480469 C 5.46875 4.527344 5.40625 4.597656 5.367188 4.679688 C 5.316406 4.761719 5.253906 4.847656 5.1875 4.9375 C 5.128906 5.015625 5.070312 5.097656 5.011719 5.183594 C 4.945312 5.285156 4.890625 5.382812 4.835938 5.476562 C 4.777344 5.578125 4.726562 5.667969 4.667969 5.753906 C 4.660156 5.769531 4.648438 5.78125 4.640625 5.796875 C 4.574219 5.933594 4.496094 6.191406 4.75 6.4375 C 4.789062 6.476562 4.839844 6.507812 4.894531 6.53125 C 5.132812 6.621094 5.367188 6.734375 5.566406 6.835938 C 5.769531 6.941406 6.007812 7.0625 6.226562 7.195312 C 6.433594 7.320312 6.644531 7.453125 6.875 7.601562 C 6.972656 7.664062 7.066406 7.734375 7.171875 7.804688 C 7.28125 7.886719 7.398438 7.96875 7.519531 8.046875 C 7.613281 8.105469 7.707031 8.148438 7.78125 8.179688 C 7.828125 8.199219 7.871094 8.21875 7.90625 8.238281 C 8.121094 8.394531 8.335938 8.542969 8.546875 8.675781 L 8.585938 8.699219 C 8.792969 8.832031 9.003906 8.96875 9.226562 9.089844 C 9.28125 9.121094 9.335938 9.152344 9.390625 9.179688 C 9.363281 9.171875 9.335938 9.167969 9.308594 9.164062 C 9.28125 9.15625 9.234375 9.132812 9.207031 9.117188 C 9.195312 9.113281 9.179688 9.105469 9.167969 9.097656 C 9.148438 9.089844 9.125 9.078125 9.101562 9.074219 C 8.882812 9.007812 8.65625 8.9375 8.355469 8.839844 C 8.222656 8.796875 8.085938 8.75 7.953125 8.707031 C 7.839844 8.667969 7.722656 8.628906 7.609375 8.589844 C 7.457031 8.539062 7.304688 8.496094 7.160156 8.453125 C 7.054688 8.421875 6.949219 8.390625 6.84375 8.355469 C 6.753906 8.328125 6.664062 8.296875 6.566406 8.265625 C 6.410156 8.210938 6.246094 8.15625 6.078125 8.109375 C 5.90625 8.0625 5.742188 8.035156 5.578125 8.003906 C 5.472656 7.988281 5.375 7.96875 5.277344 7.945312 C 5.21875 7.933594 5.160156 7.921875 5.101562 7.90625 C 4.902344 7.859375 4.695312 7.8125 4.476562 7.777344 C 4.277344 7.746094 4.082031 7.851562 4.007812 8.035156 C 3.910156 8.269531 3.824219 8.484375 3.761719 8.71875 C 3.730469 8.832031 3.710938 8.941406 3.691406 9.042969 C 3.667969 9.152344 3.648438 9.257812 3.621094 9.351562 C 3.585938 9.464844 3.601562 9.585938 3.664062 9.6875 C 3.726562 9.789062 3.832031 9.859375 3.949219 9.878906 C 4.089844 9.90625 4.226562 9.945312 4.367188 9.984375 C 4.464844 10.011719 4.566406 10.039062 4.671875 10.066406 C 4.785156 10.09375 4.902344 10.117188 5.011719 10.136719 C 5.152344 10.164062 5.289062 10.191406 5.414062 10.226562 C 5.570312 10.273438 5.722656 10.320312 5.882812 10.371094 C 5.972656 10.402344 6.058594 10.429688 6.148438 10.457031 C 6.257812 10.492188 6.371094 10.523438 6.480469 10.554688 C 6.621094 10.597656 6.753906 10.636719 6.886719 10.679688 C 6.996094 10.714844 7.105469 10.757812 7.222656 10.804688 C 7.351562 10.851562 7.480469 10.902344 7.617188 10.945312 C 7.761719 10.992188 7.90625 11.03125 8.046875 11.070312 C 8.160156 11.101562 8.265625 11.128906 8.371094 11.164062 C 8.386719 11.167969 8.398438 11.167969 8.414062 11.171875 C 8.335938 11.164062 8.261719 11.152344 8.183594 11.140625 C 8.058594 11.121094 7.9375 11.109375 7.820312 11.097656 C 7.699219 11.085938 7.585938 11.074219 7.472656 11.058594 L 7.3125 11.03125 C 7.128906 11 6.945312 10.972656 6.761719 10.941406 C 6.664062 10.929688 6.566406 10.910156 6.464844 10.890625 C 6.328125 10.863281 6.1875 10.839844 6.042969 10.820312 C 5.957031 10.808594 5.871094 10.792969 5.78125 10.78125 C 5.632812 10.757812 5.480469 10.730469 5.324219 10.714844 C 5.082031 10.683594 4.847656 10.664062 4.621094 10.644531 C 4.558594 10.636719 4.492188 10.632812 4.429688 10.628906 C 4.109375 10.597656 3.796875 10.59375 3.480469 10.617188 C 3.28125 10.628906 3.121094 10.769531 3.085938 10.957031 C 3.078125 10.992188 3.074219 11.03125 3.066406 11.066406 C 3.027344 11.261719 2.988281 11.46875 2.976562 11.691406 C 2.964844 11.925781 2.984375 12.171875 3.035156 12.449219 C 3.050781 12.625 3.148438 12.726562 3.207031 12.773438 C 3.320312 12.859375 3.460938 12.886719 3.621094 12.855469 L 3.625 12.855469 C 3.867188 12.859375 4.097656 12.867188 4.324219 12.886719 C 4.449219 12.898438 4.582031 12.921875 4.71875 12.949219 C 4.832031 12.972656 4.949219 12.992188 5.070312 13.007812 C 5.1875 13.023438 5.304688 13.035156 5.417969 13.046875 C 5.5625 13.0625 5.695312 13.078125 5.828125 13.097656 C 5.957031 13.117188 6.085938 13.132812 6.210938 13.152344 C 6.253906 13.15625 6.296875 13.160156 6.339844 13.167969 C 6.222656 13.15625 6.105469 13.148438 5.984375 13.140625 C 5.984375 13.140625 5.984375 13.140625 5.980469 13.140625 C 5.796875 13.128906 5.621094 13.136719 5.449219 13.144531 C 5.34375 13.148438 5.238281 13.152344 5.140625 13.152344 C 5.03125 13.152344 4.914062 13.152344 4.804688 13.148438 C 4.644531 13.144531 4.480469 13.144531 4.3125 13.144531 C 4.222656 13.148438 4.132812 13.148438 4.042969 13.152344 C 3.859375 13.15625 3.683594 13.160156 3.507812 13.160156 C 3.367188 13.160156 3.234375 13.226562 3.152344 13.339844 C 2.976562 13.585938 2.875 13.871094 2.835938 14.234375 C 2.8125 14.480469 2.8125 14.722656 2.8125 14.957031 L 2.8125 15.03125 C 2.8125 15.148438 2.863281 15.261719 2.957031 15.34375 C 3.046875 15.421875 3.167969 15.457031 3.292969 15.445312 C 3.367188 15.4375 3.441406 15.425781 3.519531 15.417969 C 3.691406 15.398438 3.851562 15.375 4.007812 15.371094 C 4.140625 15.363281 4.273438 15.371094 4.417969 15.375 C 4.519531 15.382812 4.625 15.386719 4.734375 15.386719 C 4.8125 15.386719 4.894531 15.386719 4.972656 15.386719 C 5.144531 15.386719 5.304688 15.386719 5.464844 15.390625 L 5.601562 15.398438 C 5.800781 15.40625 6.003906 15.414062 6.203125 15.425781 C 6.324219 15.433594 6.445312 15.445312 6.570312 15.457031 C 6.695312 15.46875 6.820312 15.480469 6.945312 15.492188 C 7.089844 15.5 7.234375 15.503906 7.371094 15.507812 C 7.484375 15.511719 7.589844 15.515625 7.703125 15.523438 C 7.910156 15.53125 8.121094 15.539062 8.339844 15.539062 C 8.417969 15.539062 8.5 15.535156 8.578125 15.535156 C 8.863281 15.53125 9.160156 15.527344 9.457031 15.503906 C 9.507812 15.496094 9.554688 15.496094 9.605469 15.492188 C 9.84375 15.472656 10.089844 15.453125 10.335938 15.414062 C 10.558594 15.382812 10.714844 15.1875 10.695312 14.96875 C 10.6875 14.839844 10.613281 14.726562 10.507812 14.65625 C 10.46875 14.554688 10.445312 14.429688 10.429688 14.269531 C 10.417969 14.164062 10.410156 14.054688 10.402344 13.949219 C 10.398438 13.882812 10.394531 13.816406 10.386719 13.75 C 10.410156 13.632812 10.382812 13.511719 10.304688 13.414062 C 10.335938 13.382812 10.363281 13.351562 10.382812 13.3125 C 10.53125 13.054688 10.585938 12.773438 10.621094 12.511719 C 10.640625 12.359375 10.652344 12.210938 10.660156 12.066406 C 10.664062 12.011719 10.667969 11.957031 10.671875 11.90625 C 10.691406 11.847656 10.699219 11.785156 10.691406 11.71875 C 10.6875 11.675781 10.675781 11.632812 10.65625 11.59375 C 10.667969 11.589844 10.675781 11.585938 10.683594 11.582031 C 10.851562 11.539062 10.976562 11.398438 10.996094 11.226562 C 11.011719 11.09375 10.960938 10.972656 10.871094 10.886719 C 10.878906 10.832031 10.890625 10.773438 10.910156 10.703125 C 10.933594 10.613281 10.972656 10.519531 11.015625 10.414062 C 11.035156 10.371094 11.054688 10.320312 11.074219 10.273438 C 11.128906 10.238281 11.171875 10.1875 11.207031 10.132812 C 11.261719 10.03125 11.269531 9.914062 11.238281 9.808594 C 11.386719 9.730469 11.472656 9.578125 11.460938 9.414062 C 11.457031 9.378906 11.453125 9.34375 11.441406 9.308594 C 11.488281 9.195312 11.546875 9.082031 11.625 8.960938 C 11.707031 8.835938 11.796875 8.695312 11.871094 8.539062 C 11.894531 8.515625 11.914062 8.492188 11.929688 8.464844 C 12.15625 8.363281 12.394531 8.230469 12.65625 8.058594 C 12.78125 7.972656 12.898438 7.886719 13.011719 7.804688 C 13.105469 7.738281 13.195312 7.671875 13.289062 7.609375 C 13.335938 7.578125 13.371094 7.539062 13.402344 7.5 C 13.542969 7.492188 13.695312 7.480469 13.863281 7.460938 C 14.152344 7.429688 14.378906 7.410156 14.605469 7.390625 C 14.730469 7.378906 14.847656 7.316406 14.917969 7.21875 C 14.992188 7.117188 15.019531 6.992188 14.988281 6.875 Z M 9.058594 8.003906 L 9.023438 7.980469 C 8.820312 7.851562 8.617188 7.710938 8.410156 7.5625 C 8.40625 7.558594 8.398438 7.554688 8.390625 7.550781 C 8.296875 7.488281 8.203125 7.449219 8.128906 7.417969 C 8.078125 7.394531 8.03125 7.375 7.996094 7.351562 C 7.890625 7.28125 7.789062 7.210938 7.679688 7.132812 C 7.574219 7.058594 7.464844 6.984375 7.355469 6.910156 C 7.117188 6.753906 6.898438 6.617188 6.679688 6.484375 C 6.4375 6.339844 6.183594 6.207031 5.964844 6.097656 C 5.84375 6.035156 5.714844 5.972656 5.574219 5.90625 C 5.578125 5.898438 5.585938 5.886719 5.589844 5.878906 C 5.640625 5.792969 5.6875 5.710938 5.734375 5.632812 C 5.78125 5.566406 5.832031 5.496094 5.886719 5.425781 C 5.890625 5.421875 5.894531 5.414062 5.898438 5.410156 C 5.898438 5.410156 5.902344 5.410156 5.90625 5.414062 C 6.117188 5.5 6.339844 5.613281 6.597656 5.761719 C 6.835938 5.898438 7.070312 6.039062 7.316406 6.195312 C 7.578125 6.367188 7.851562 6.527344 8.0625 6.652344 C 8.179688 6.726562 8.289062 6.808594 8.40625 6.894531 C 8.46875 6.941406 8.53125 6.988281 8.597656 7.03125 C 8.769531 7.15625 8.953125 7.28125 9.171875 7.425781 C 9.324219 7.527344 9.484375 7.617188 9.652344 7.707031 C 9.6875 7.769531 9.734375 7.816406 9.769531 7.84375 C 9.785156 7.859375 9.804688 7.871094 9.824219 7.882812 C 9.976562 7.96875 10.128906 8.042969 10.277344 8.113281 C 10.355469 8.152344 10.425781 8.183594 10.496094 8.222656 L 10.535156 8.242188 C 10.667969 8.308594 10.804688 8.378906 10.941406 8.445312 C 10.925781 8.46875 10.910156 8.496094 10.894531 8.519531 C 10.816406 8.640625 10.75 8.761719 10.691406 8.878906 C 10.558594 8.824219 10.433594 8.773438 10.316406 8.714844 C 10.105469 8.613281 9.890625 8.5 9.65625 8.367188 C 9.457031 8.257812 9.261719 8.132812 9.058594 8.003906 Z M 8.28125 10.265625 C 8.144531 10.230469 8.015625 10.195312 7.890625 10.15625 C 7.777344 10.117188 7.664062 10.074219 7.542969 10.027344 C 7.421875 9.980469 7.292969 9.929688 7.160156 9.886719 C 7.015625 9.839844 6.871094 9.796875 6.730469 9.757812 C 6.617188 9.726562 6.515625 9.695312 6.410156 9.664062 C 6.324219 9.636719 6.242188 9.609375 6.15625 9.582031 C 5.996094 9.527344 5.828125 9.476562 5.65625 9.425781 C 5.496094 9.382812 5.335938 9.351562 5.183594 9.320312 C 5.078125 9.296875 4.976562 9.277344 4.878906 9.253906 C 4.789062 9.234375 4.703125 9.207031 4.609375 9.183594 C 4.585938 9.175781 4.566406 9.171875 4.542969 9.164062 C 4.558594 9.082031 4.574219 9.003906 4.59375 8.929688 C 4.621094 8.84375 4.648438 8.757812 4.679688 8.667969 C 4.753906 8.683594 4.828125 8.699219 4.902344 8.71875 C 4.960938 8.730469 5.023438 8.746094 5.082031 8.761719 C 5.199219 8.785156 5.3125 8.804688 5.425781 8.824219 C 5.570312 8.851562 5.710938 8.875 5.839844 8.914062 C 5.984375 8.953125 6.128906 9.003906 6.285156 9.054688 C 6.378906 9.085938 6.480469 9.117188 6.578125 9.152344 C 6.6875 9.183594 6.796875 9.21875 6.910156 9.25 C 7.054688 9.292969 7.191406 9.335938 7.332031 9.378906 C 7.441406 9.417969 7.554688 9.453125 7.664062 9.492188 C 7.800781 9.539062 7.941406 9.585938 8.082031 9.632812 C 8.375 9.726562 8.601562 9.796875 8.8125 9.859375 L 8.816406 9.863281 C 8.914062 9.910156 9.039062 9.972656 9.179688 9.992188 C 9.445312 10.074219 9.703125 10.136719 9.945312 10.1875 C 10.019531 10.207031 10.09375 10.21875 10.164062 10.234375 C 10.132812 10.3125 10.101562 10.398438 10.078125 10.484375 C 10.0625 10.539062 10.046875 10.597656 10.035156 10.660156 C 9.945312 10.644531 9.855469 10.628906 9.765625 10.613281 L 9.691406 10.597656 C 9.425781 10.542969 9.175781 10.496094 8.917969 10.421875 C 8.886719 10.414062 8.855469 10.410156 8.820312 10.410156 C 8.808594 10.40625 8.789062 10.398438 8.773438 10.394531 C 8.71875 10.378906 8.65625 10.359375 8.582031 10.351562 C 8.480469 10.320312 8.378906 10.292969 8.28125 10.265625 Z M 5.96875 12.273438 C 5.8125 12.25 5.65625 12.234375 5.507812 12.21875 C 5.394531 12.207031 5.292969 12.195312 5.1875 12.183594 C 5.089844 12.167969 4.992188 12.148438 4.882812 12.128906 C 4.730469 12.101562 4.570312 12.070312 4.402344 12.058594 C 4.214844 12.039062 4.027344 12.03125 3.84375 12.027344 C 3.835938 11.921875 3.832031 11.824219 3.835938 11.730469 C 3.84375 11.632812 3.855469 11.535156 3.871094 11.4375 C 4.03125 11.4375 4.183594 11.441406 4.347656 11.457031 C 4.414062 11.464844 4.480469 11.46875 4.546875 11.476562 C 4.765625 11.492188 4.988281 11.511719 5.210938 11.542969 C 5.214844 11.542969 5.222656 11.542969 5.226562 11.546875 C 5.363281 11.558594 5.496094 11.582031 5.640625 11.601562 C 5.734375 11.617188 5.828125 11.632812 5.925781 11.644531 C 6.046875 11.660156 6.167969 11.683594 6.300781 11.710938 C 6.40625 11.730469 6.511719 11.75 6.625 11.765625 C 6.808594 11.796875 6.988281 11.824219 7.171875 11.855469 L 7.332031 11.878906 C 7.46875 11.902344 7.605469 11.914062 7.734375 11.929688 C 7.84375 11.9375 7.949219 11.949219 8.050781 11.964844 C 8.230469 11.992188 8.414062 12.011719 8.585938 12.035156 C 8.652344 12.042969 8.714844 12.050781 8.777344 12.058594 C 8.867188 12.070312 8.960938 12.085938 9.058594 12.101562 C 9.203125 12.128906 9.351562 12.15625 9.507812 12.167969 C 9.605469 12.175781 9.699219 12.179688 9.789062 12.179688 C 9.785156 12.257812 9.777344 12.328125 9.765625 12.402344 C 9.753906 12.5 9.738281 12.597656 9.714844 12.691406 C 9.515625 12.683594 9.316406 12.675781 9.125 12.664062 C 9.035156 12.660156 8.949219 12.65625 8.859375 12.652344 C 8.65625 12.640625 8.441406 12.632812 8.234375 12.617188 C 8.058594 12.597656 7.882812 12.570312 7.699219 12.542969 C 7.628906 12.535156 7.5625 12.523438 7.492188 12.511719 C 7.359375 12.496094 7.222656 12.46875 7.082031 12.441406 C 6.96875 12.421875 6.855469 12.398438 6.738281 12.382812 C 6.597656 12.359375 6.460938 12.339844 6.328125 12.324219 C 6.203125 12.308594 6.085938 12.292969 5.96875 12.273438 Z M 9.535156 14.660156 C 9.484375 14.664062 9.4375 14.667969 9.386719 14.671875 C 9.117188 14.691406 8.835938 14.695312 8.566406 14.699219 C 8.277344 14.707031 8.007812 14.703125 7.75 14.6875 C 7.628906 14.683594 7.511719 14.679688 7.398438 14.675781 C 7.261719 14.671875 7.132812 14.667969 7.007812 14.65625 C 6.890625 14.648438 6.777344 14.640625 6.65625 14.628906 C 6.527344 14.613281 6.394531 14.601562 6.257812 14.59375 C 6.050781 14.582031 5.839844 14.570312 5.636719 14.5625 L 5.503906 14.558594 C 5.375 14.554688 5.246094 14.550781 5.117188 14.550781 C 5.070312 14.550781 5.019531 14.550781 4.972656 14.550781 C 4.894531 14.550781 4.816406 14.550781 4.738281 14.550781 C 4.648438 14.550781 4.558594 14.546875 4.460938 14.542969 C 4.300781 14.535156 4.140625 14.527344 3.96875 14.535156 C 3.871094 14.539062 3.773438 14.546875 3.675781 14.558594 C 3.679688 14.476562 3.683594 14.394531 3.695312 14.316406 C 3.707031 14.191406 3.730469 14.082031 3.765625 13.992188 C 3.867188 13.992188 3.964844 13.988281 4.0625 13.984375 C 4.152344 13.984375 4.238281 13.980469 4.328125 13.980469 C 4.480469 13.976562 4.628906 13.980469 4.789062 13.984375 C 4.902344 13.984375 5.023438 13.988281 5.140625 13.988281 C 5.257812 13.988281 5.375 13.984375 5.488281 13.976562 C 5.644531 13.972656 5.792969 13.964844 5.933594 13.972656 C 6.078125 13.980469 6.21875 13.996094 6.371094 14.007812 C 6.484375 14.019531 6.605469 14.03125 6.726562 14.039062 C 6.839844 14.046875 6.953125 14.058594 7.074219 14.070312 C 7.222656 14.085938 7.375 14.101562 7.53125 14.113281 C 7.726562 14.125 7.921875 14.128906 8.113281 14.128906 C 8.191406 14.132812 8.269531 14.132812 8.347656 14.136719 C 8.609375 14.140625 8.863281 14.132812 9.109375 14.121094 L 9.179688 14.121094 C 9.257812 14.117188 9.339844 14.117188 9.421875 14.113281 C 9.464844 14.113281 9.507812 14.113281 9.550781 14.113281 C 9.558594 14.191406 9.5625 14.269531 9.574219 14.351562 C 9.582031 14.441406 9.59375 14.542969 9.617188 14.652344 C 9.589844 14.652344 9.5625 14.65625 9.535156 14.660156 Z M 12.171875 7.367188 C 12.027344 7.464844 11.890625 7.542969 11.765625 7.613281 C 11.664062 7.488281 11.578125 7.375 11.492188 7.257812 C 11.402344 7.136719 11.320312 7.015625 11.234375 6.882812 C 11.191406 6.820312 11.152344 6.753906 11.109375 6.691406 C 11.046875 6.601562 10.984375 6.515625 10.921875 6.429688 C 10.847656 6.324219 10.773438 6.226562 10.710938 6.128906 C 10.648438 6.035156 10.59375 5.941406 10.535156 5.84375 C 10.476562 5.75 10.417969 5.652344 10.351562 5.554688 C 10.253906 5.367188 10.148438 5.191406 10.046875 5.023438 C 10.011719 4.960938 9.972656 4.902344 9.9375 4.839844 C 9.855469 4.699219 9.769531 4.566406 9.683594 4.433594 C 9.621094 4.339844 9.558594 4.238281 9.496094 4.136719 C 9.421875 4.015625 9.351562 3.886719 9.277344 3.746094 C 9.222656 3.644531 9.164062 3.535156 9.101562 3.429688 C 9.097656 3.421875 9.097656 3.417969 9.09375 3.410156 C 9.058594 3.363281 8.988281 3.273438 8.863281 3.222656 C 8.832031 3.179688 8.804688 3.132812 8.773438 3.082031 C 8.730469 3.015625 8.6875 2.941406 8.636719 2.871094 C 8.617188 2.839844 8.597656 2.808594 8.574219 2.777344 C 8.632812 2.75 8.6875 2.726562 8.746094 2.699219 L 8.910156 2.625 C 9.046875 2.5625 9.179688 2.496094 9.304688 2.421875 C 9.386719 2.535156 9.46875 2.636719 9.546875 2.738281 C 9.632812 2.847656 9.714844 2.953125 9.792969 3.0625 C 9.863281 3.171875 9.925781 3.289062 9.992188 3.410156 C 10.046875 3.507812 10.101562 3.605469 10.160156 3.707031 C 10.3125 3.957031 10.4375 4.160156 10.546875 4.347656 C 10.613281 4.464844 10.679688 4.574219 10.746094 4.683594 C 10.8125 4.792969 10.875 4.894531 10.9375 4.996094 C 11.035156 5.164062 11.136719 5.328125 11.234375 5.488281 C 11.269531 5.542969 11.300781 5.597656 11.335938 5.652344 C 11.386719 5.734375 11.433594 5.816406 11.480469 5.902344 C 11.558594 6.042969 11.640625 6.183594 11.734375 6.324219 C 11.90625 6.574219 12.058594 6.777344 12.203125 6.964844 C 12.273438 7.046875 12.339844 7.128906 12.40625 7.203125 C 12.328125 7.261719 12.25 7.316406 12.171875 7.367188 Z M 13.773438 6.632812 C 13.675781 6.640625 13.585938 6.648438 13.5 6.65625 C 13.496094 6.613281 13.492188 6.570312 13.484375 6.53125 C 13.453125 6.292969 13.425781 6.066406 13.378906 5.832031 C 13.367188 5.78125 13.355469 5.734375 13.347656 5.6875 C 13.296875 5.449219 13.25 5.222656 13.234375 4.988281 C 13.234375 4.980469 13.230469 4.96875 13.230469 4.960938 C 13.195312 4.695312 13.152344 4.378906 13.125 4.0625 L 13.109375 3.878906 C 13.085938 3.644531 13.066406 3.398438 13.046875 3.15625 C 13.035156 2.871094 13.011719 2.5625 12.957031 2.257812 C 12.933594 2.117188 12.902344 1.984375 12.871094 1.855469 C 12.839844 1.707031 12.808594 1.5625 12.785156 1.421875 C 12.761719 1.296875 12.746094 1.167969 12.734375 1.039062 C 12.863281 1.03125 12.988281 1.015625 13.113281 0.988281 C 13.140625 1.054688 13.164062 1.121094 13.183594 1.183594 C 13.226562 1.34375 13.257812 1.511719 13.289062 1.6875 C 13.296875 1.734375 13.304688 1.777344 13.3125 1.824219 C 13.351562 2.019531 13.375 2.226562 13.402344 2.445312 L 13.40625 2.476562 C 13.40625 2.484375 13.40625 2.492188 13.410156 2.496094 C 13.425781 2.59375 13.441406 2.691406 13.460938 2.789062 C 13.488281 2.945312 13.515625 3.09375 13.539062 3.242188 C 13.554688 3.363281 13.566406 3.488281 13.574219 3.621094 C 13.585938 3.746094 13.59375 3.875 13.613281 4.003906 C 13.628906 4.144531 13.652344 4.285156 13.671875 4.421875 C 13.6875 4.535156 13.707031 4.652344 13.722656 4.765625 C 13.730469 4.835938 13.742188 4.90625 13.75 4.972656 C 13.773438 5.15625 13.796875 5.347656 13.828125 5.535156 C 13.835938 5.59375 13.847656 5.648438 13.855469 5.707031 C 13.886719 5.902344 13.917969 6.105469 13.957031 6.308594 C 13.976562 6.410156 14 6.507812 14.027344 6.605469 C 13.945312 6.613281 13.863281 6.621094 13.773438 6.632812 Z M 13.773438 6.632812 "/>
<path style=" stroke:none;fill-rule:nonzero;fill:rgb(0%,0%,0%);fill-opacity:1;" d="M 12.921875 11.867188 C 12.78125 11.882812 12.652344 11.902344 12.53125 11.921875 C 12.453125 11.933594 12.375 11.945312 12.300781 11.953125 C 12.132812 11.976562 11.953125 11.984375 11.730469 11.984375 C 11.613281 11.984375 11.496094 12.035156 11.414062 12.121094 C 11.332031 12.207031 11.292969 12.320312 11.304688 12.4375 C 11.316406 12.597656 11.320312 12.761719 11.324219 12.933594 C 11.324219 13.011719 11.328125 13.085938 11.328125 13.164062 C 11.332031 13.277344 11.339844 13.386719 11.347656 13.492188 C 11.359375 13.632812 11.371094 13.769531 11.367188 13.898438 C 11.367188 14.035156 11.359375 14.175781 11.347656 14.320312 C 11.34375 14.425781 11.335938 14.53125 11.332031 14.640625 C 11.324219 14.789062 11.316406 14.933594 11.304688 15.089844 C 11.300781 15.1875 11.292969 15.285156 11.289062 15.382812 C 11.28125 15.511719 11.273438 15.644531 11.261719 15.773438 C 11.253906 15.890625 11.246094 16.011719 11.238281 16.128906 C 11.230469 16.273438 11.222656 16.414062 11.21875 16.546875 C 11.21875 16.660156 11.214844 16.773438 11.207031 16.886719 C 11.199219 17.046875 11.195312 17.207031 11.191406 17.363281 C 11.191406 17.457031 11.1875 17.550781 11.1875 17.644531 C 11.183594 17.734375 11.179688 17.824219 11.175781 17.914062 C 11.171875 17.945312 11.171875 17.972656 11.171875 18.003906 C 11.066406 18 10.957031 17.996094 10.847656 17.996094 C 10.734375 17.996094 10.621094 17.996094 10.511719 18 C 10.371094 18 10.234375 18.003906 10.101562 18 C 9.976562 18 9.851562 17.988281 9.71875 17.980469 C 9.597656 17.96875 9.476562 17.960938 9.351562 17.957031 C 9.226562 17.953125 9.097656 17.941406 8.960938 17.933594 C 8.84375 17.925781 8.726562 17.917969 8.605469 17.910156 C 8.472656 17.902344 8.34375 17.90625 8.21875 17.90625 C 8.089844 17.90625 7.96875 17.90625 7.851562 17.898438 C 7.734375 17.890625 7.621094 17.886719 7.503906 17.882812 C 7.367188 17.875 7.234375 17.871094 7.101562 17.863281 C 6.980469 17.855469 6.863281 17.84375 6.738281 17.835938 C 6.609375 17.824219 6.480469 17.8125 6.347656 17.804688 C 6.210938 17.796875 6.074219 17.792969 5.941406 17.789062 C 5.824219 17.785156 5.707031 17.78125 5.59375 17.773438 C 5.488281 17.769531 5.382812 17.761719 5.28125 17.753906 C 5.136719 17.746094 4.984375 17.738281 4.835938 17.730469 C 4.730469 17.726562 4.621094 17.71875 4.511719 17.710938 C 4.371094 17.703125 4.222656 17.695312 4.078125 17.6875 C 4.074219 17.6875 4.066406 17.6875 4.0625 17.6875 C 3.914062 17.6875 3.765625 17.695312 3.625 17.707031 C 3.507812 17.714844 3.394531 17.71875 3.28125 17.722656 C 3.1875 17.722656 3.09375 17.722656 2.992188 17.71875 C 2.832031 17.71875 2.660156 17.714844 2.488281 17.726562 C 2.390625 17.730469 2.285156 17.734375 2.179688 17.742188 C 2.183594 17.644531 2.1875 17.542969 2.1875 17.441406 C 2.1875 17.292969 2.179688 17.152344 2.175781 17.011719 C 2.167969 16.894531 2.164062 16.785156 2.164062 16.671875 C 2.164062 16.527344 2.160156 16.382812 2.15625 16.242188 C 2.15625 16.128906 2.152344 16.019531 2.152344 15.910156 C 2.148438 15.785156 2.152344 15.660156 2.152344 15.53125 C 2.152344 15.40625 2.15625 15.277344 2.152344 15.148438 C 2.152344 14.921875 2.152344 14.691406 2.152344 14.46875 L 2.152344 14.390625 C 2.152344 14.296875 2.148438 14.203125 2.148438 14.109375 C 2.148438 13.953125 2.144531 13.792969 2.148438 13.636719 C 2.148438 13.492188 2.15625 13.351562 2.164062 13.199219 C 2.171875 13.097656 2.175781 12.992188 2.179688 12.882812 C 2.1875 12.640625 2.199219 12.402344 2.214844 12.175781 C 2.214844 12.152344 2.21875 12.132812 2.21875 12.109375 C 2.21875 11.882812 2.03125 11.699219 1.800781 11.691406 C 1.671875 11.6875 1.554688 11.738281 1.472656 11.820312 C 1.34375 11.84375 1.21875 11.859375 1.101562 11.867188 C 0.910156 11.882812 0.703125 11.867188 0.5625 11.851562 C 0.417969 11.835938 0.277344 11.890625 0.183594 12 C 0.09375 12.105469 0.0625 12.25 0.101562 12.382812 C 0.164062 12.59375 0.203125 12.804688 0.210938 13 C 0.222656 13.195312 0.21875 13.414062 0.199219 13.660156 C 0.191406 13.757812 0.183594 13.859375 0.175781 13.957031 C 0.164062 14.09375 0.148438 14.234375 0.140625 14.378906 C 0.140625 14.382812 0.140625 14.386719 0.140625 14.390625 C 0.136719 14.527344 0.136719 14.664062 0.136719 14.792969 C 0.136719 14.910156 0.136719 15.015625 0.136719 15.125 L 0.132812 15.292969 C 0.125 15.480469 0.121094 15.667969 0.117188 15.855469 C 0.117188 15.976562 0.113281 16.09375 0.105469 16.222656 C 0.101562 16.339844 0.0976562 16.460938 0.09375 16.585938 C 0.0859375 16.828125 0.0820312 17.070312 0.0742188 17.3125 C 0.0703125 17.460938 0.0625 17.609375 0.0546875 17.757812 C 0.0507812 17.851562 0.046875 17.945312 0.0429688 18.035156 C 0.0351562 18.210938 0.0234375 18.390625 0.0117188 18.566406 C 0.0078125 18.632812 0.00390625 18.699219 0 18.761719 C -0.00390625 18.835938 0.0117188 18.910156 0.046875 18.972656 C 0.0664062 19.011719 0.0625 19.058594 0.0507812 19.175781 C 0.0390625 19.285156 0.0273438 19.421875 0.0546875 19.574219 C 0.0898438 19.792969 0.300781 19.945312 0.53125 19.921875 C 0.871094 19.878906 1.128906 19.855469 1.363281 19.835938 C 1.476562 19.828125 1.589844 19.816406 1.699219 19.804688 C 1.871094 19.789062 2.03125 19.773438 2.1875 19.765625 C 2.332031 19.761719 2.476562 19.765625 2.632812 19.773438 C 2.757812 19.777344 2.890625 19.78125 3.023438 19.78125 L 3.1875 19.78125 C 3.40625 19.777344 3.636719 19.773438 3.855469 19.777344 C 3.984375 19.78125 4.113281 19.777344 4.234375 19.777344 C 4.394531 19.777344 4.542969 19.773438 4.691406 19.78125 C 4.816406 19.785156 4.941406 19.796875 5.074219 19.808594 C 5.210938 19.820312 5.347656 19.832031 5.492188 19.839844 C 5.636719 19.847656 5.78125 19.847656 5.921875 19.84375 C 6.054688 19.84375 6.175781 19.84375 6.296875 19.847656 C 6.417969 19.855469 6.539062 19.867188 6.667969 19.878906 C 6.808594 19.890625 6.953125 19.90625 7.105469 19.914062 C 7.257812 19.917969 7.414062 19.921875 7.5625 19.925781 C 7.679688 19.929688 7.796875 19.933594 7.914062 19.9375 C 8.066406 19.945312 8.214844 19.941406 8.359375 19.9375 C 8.484375 19.9375 8.605469 19.933594 8.722656 19.9375 C 8.839844 19.941406 8.957031 19.949219 9.082031 19.957031 C 9.226562 19.96875 9.378906 19.976562 9.535156 19.980469 C 9.691406 19.984375 9.84375 19.976562 9.992188 19.96875 C 10.117188 19.964844 10.230469 19.960938 10.347656 19.960938 C 10.457031 19.960938 10.574219 19.96875 10.695312 19.976562 C 10.828125 19.984375 10.964844 19.996094 11.105469 19.996094 C 11.121094 19.996094 11.140625 19.996094 11.160156 19.992188 C 11.324219 19.992188 11.480469 19.976562 11.628906 19.957031 C 11.75 19.945312 11.863281 19.933594 11.972656 19.929688 C 12.082031 19.925781 12.1875 19.925781 12.296875 19.921875 C 12.457031 19.921875 12.621094 19.917969 12.789062 19.90625 C 13.015625 19.894531 13.191406 19.710938 13.191406 19.492188 C 13.191406 19.359375 13.1875 19.234375 13.179688 19.109375 C 13.175781 18.992188 13.171875 18.882812 13.171875 18.773438 C 13.171875 18.664062 13.179688 18.554688 13.183594 18.4375 C 13.191406 18.3125 13.199219 18.1875 13.199219 18.054688 C 13.199219 17.925781 13.191406 17.796875 13.183594 17.675781 C 13.175781 17.558594 13.167969 17.445312 13.167969 17.335938 C 13.167969 17.222656 13.175781 17.109375 13.183594 16.988281 C 13.1875 16.867188 13.195312 16.746094 13.195312 16.621094 C 13.195312 16.511719 13.195312 16.40625 13.195312 16.300781 C 13.191406 16.171875 13.191406 16.035156 13.195312 15.90625 C 13.195312 15.804688 13.195312 15.703125 13.195312 15.605469 C 13.195312 15.46875 13.199219 15.328125 13.199219 15.191406 C 13.203125 15.078125 13.214844 14.960938 13.226562 14.839844 C 13.238281 14.722656 13.25 14.605469 13.253906 14.480469 C 13.261719 14.359375 13.257812 14.242188 13.257812 14.125 C 13.257812 14 13.257812 13.882812 13.261719 13.765625 C 13.269531 13.628906 13.285156 13.488281 13.296875 13.34375 C 13.308594 13.25 13.316406 13.152344 13.324219 13.058594 C 13.324219 13.046875 13.324219 13.035156 13.324219 13.027344 C 13.324219 12.992188 13.324219 12.957031 13.324219 12.921875 C 13.320312 12.730469 13.320312 12.566406 13.371094 12.414062 C 13.417969 12.28125 13.390625 12.132812 13.300781 12.023438 C 13.210938 11.910156 13.066406 11.851562 12.921875 11.867188 Z M 12.441406 13.269531 C 12.425781 13.414062 12.414062 13.566406 12.402344 13.71875 C 12.394531 13.863281 12.394531 14 12.398438 14.132812 C 12.398438 14.242188 12.398438 14.34375 12.394531 14.445312 C 12.390625 14.546875 12.378906 14.652344 12.371094 14.761719 C 12.355469 14.890625 12.34375 15.027344 12.339844 15.167969 C 12.335938 15.3125 12.335938 15.460938 12.335938 15.601562 C 12.335938 15.699219 12.335938 15.796875 12.332031 15.890625 C 12.332031 16.03125 12.332031 16.171875 12.332031 16.304688 C 12.332031 16.410156 12.335938 16.511719 12.332031 16.613281 C 12.332031 16.722656 12.328125 16.832031 12.320312 16.945312 C 12.316406 17.070312 12.308594 17.203125 12.308594 17.335938 C 12.308594 17.46875 12.316406 17.597656 12.324219 17.722656 C 12.328125 17.839844 12.335938 17.949219 12.335938 18.054688 C 12.335938 18.164062 12.332031 18.273438 12.324219 18.390625 C 12.316406 18.515625 12.308594 18.644531 12.308594 18.773438 C 12.3125 18.882812 12.3125 18.984375 12.316406 19.085938 C 12.308594 19.085938 12.296875 19.089844 12.285156 19.089844 C 12.171875 19.089844 12.058594 19.089844 11.941406 19.097656 C 11.800781 19.101562 11.664062 19.117188 11.535156 19.128906 C 11.398438 19.144531 11.269531 19.15625 11.144531 19.160156 C 11.019531 19.160156 10.890625 19.152344 10.753906 19.144531 C 10.625 19.136719 10.488281 19.125 10.347656 19.125 C 10.214844 19.125 10.082031 19.132812 9.957031 19.136719 C 9.816406 19.140625 9.679688 19.148438 9.546875 19.144531 C 9.414062 19.144531 9.28125 19.136719 9.140625 19.125 C 9.015625 19.117188 8.882812 19.105469 8.746094 19.105469 C 8.609375 19.101562 8.472656 19.101562 8.34375 19.105469 C 8.203125 19.105469 8.074219 19.109375 7.945312 19.105469 C 7.824219 19.101562 7.707031 19.097656 7.585938 19.09375 C 7.441406 19.089844 7.289062 19.085938 7.140625 19.078125 C 7.015625 19.074219 6.890625 19.0625 6.757812 19.046875 C 6.621094 19.035156 6.484375 19.019531 6.339844 19.015625 C 6.195312 19.007812 6.050781 19.007812 5.914062 19.011719 C 5.78125 19.011719 5.65625 19.011719 5.535156 19.007812 C 5.410156 19 5.285156 18.988281 5.152344 18.976562 C 5.015625 18.964844 4.875 18.953125 4.730469 18.945312 C 4.726562 18.945312 4.722656 18.945312 4.722656 18.945312 C 4.554688 18.941406 4.386719 18.941406 4.226562 18.945312 C 4.101562 18.945312 3.988281 18.945312 3.871094 18.945312 C 3.636719 18.941406 3.40625 18.941406 3.179688 18.945312 L 3.015625 18.945312 C 2.902344 18.949219 2.785156 18.941406 2.664062 18.9375 C 2.5 18.933594 2.332031 18.925781 2.15625 18.933594 C 1.96875 18.941406 1.789062 18.957031 1.613281 18.976562 C 1.503906 18.988281 1.398438 18.996094 1.296875 19.003906 C 1.179688 19.011719 1.054688 19.023438 0.921875 19.039062 C 0.921875 18.941406 0.90625 18.832031 0.867188 18.714844 C 0.867188 18.683594 0.871094 18.648438 0.871094 18.613281 C 0.882812 18.4375 0.894531 18.253906 0.902344 18.070312 C 0.90625 17.980469 0.910156 17.886719 0.914062 17.796875 C 0.921875 17.648438 0.929688 17.492188 0.933594 17.335938 C 0.941406 17.089844 0.949219 16.847656 0.953125 16.601562 C 0.957031 16.488281 0.960938 16.371094 0.964844 16.257812 C 0.972656 16.132812 0.976562 16 0.980469 15.871094 C 0.984375 15.683594 0.988281 15.496094 0.992188 15.3125 L 0.996094 15.140625 C 1 15.023438 1 14.90625 1 14.792969 C 1 14.664062 1 14.542969 1 14.421875 C 1.011719 14.292969 1.019531 14.164062 1.035156 14.027344 C 1.042969 13.925781 1.050781 13.824219 1.058594 13.722656 C 1.078125 13.441406 1.085938 13.191406 1.074219 12.957031 C 1.070312 12.875 1.0625 12.792969 1.050781 12.707031 C 1.09375 12.707031 1.132812 12.703125 1.175781 12.699219 C 1.222656 12.695312 1.273438 12.691406 1.324219 12.683594 C 1.324219 12.742188 1.320312 12.796875 1.320312 12.855469 C 1.316406 12.953125 1.308594 13.058594 1.304688 13.15625 C 1.296875 13.308594 1.289062 13.464844 1.285156 13.625 C 1.285156 13.789062 1.285156 13.957031 1.289062 14.117188 C 1.289062 14.207031 1.289062 14.300781 1.289062 14.390625 L 1.289062 14.472656 C 1.289062 14.695312 1.289062 14.929688 1.292969 15.15625 C 1.292969 15.277344 1.292969 15.402344 1.292969 15.519531 C 1.289062 15.652344 1.289062 15.785156 1.289062 15.921875 C 1.292969 16.03125 1.292969 16.144531 1.296875 16.257812 C 1.296875 16.398438 1.300781 16.539062 1.300781 16.679688 C 1.304688 16.804688 1.308594 16.929688 1.316406 17.050781 C 1.320312 17.183594 1.328125 17.3125 1.324219 17.4375 C 1.324219 17.574219 1.320312 17.714844 1.3125 17.863281 C 1.308594 17.972656 1.304688 18.082031 1.300781 18.195312 C 1.300781 18.316406 1.351562 18.429688 1.441406 18.511719 C 1.535156 18.59375 1.65625 18.632812 1.78125 18.617188 C 2.054688 18.589844 2.300781 18.570312 2.53125 18.558594 C 2.679688 18.550781 2.828125 18.554688 2.984375 18.554688 C 3.082031 18.554688 3.1875 18.558594 3.292969 18.554688 C 3.425781 18.554688 3.554688 18.546875 3.679688 18.539062 C 3.8125 18.53125 3.933594 18.523438 4.054688 18.523438 C 4.183594 18.527344 4.316406 18.535156 4.453125 18.542969 C 4.566406 18.550781 4.679688 18.558594 4.796875 18.5625 C 4.9375 18.570312 5.085938 18.578125 5.226562 18.589844 C 5.332031 18.59375 5.441406 18.601562 5.546875 18.605469 C 5.667969 18.613281 5.785156 18.617188 5.90625 18.621094 C 6.035156 18.625 6.167969 18.632812 6.296875 18.640625 C 6.417969 18.644531 6.539062 18.65625 6.664062 18.667969 C 6.789062 18.675781 6.917969 18.6875 7.050781 18.695312 C 7.1875 18.703125 7.324219 18.710938 7.460938 18.714844 C 7.578125 18.71875 7.691406 18.726562 7.804688 18.730469 C 7.949219 18.738281 8.085938 18.738281 8.21875 18.738281 C 8.339844 18.738281 8.453125 18.738281 8.5625 18.742188 C 8.671875 18.75 8.78125 18.757812 8.898438 18.765625 C 9.035156 18.773438 9.175781 18.785156 9.320312 18.789062 C 9.429688 18.792969 9.535156 18.800781 9.652344 18.8125 C 9.789062 18.820312 9.933594 18.832031 10.082031 18.835938 C 10.234375 18.839844 10.382812 18.835938 10.53125 18.832031 C 10.636719 18.832031 10.742188 18.828125 10.84375 18.828125 C 10.945312 18.828125 11.046875 18.832031 11.15625 18.835938 C 11.304688 18.84375 11.453125 18.847656 11.609375 18.84375 C 11.78125 18.84375 11.933594 18.738281 12 18.582031 C 12.03125 18.503906 12.039062 18.417969 12.019531 18.339844 C 12.023438 18.214844 12.027344 18.085938 12.035156 17.953125 C 12.039062 17.859375 12.042969 17.765625 12.046875 17.667969 C 12.050781 17.574219 12.050781 17.476562 12.054688 17.378906 C 12.058594 17.222656 12.058594 17.074219 12.066406 16.925781 C 12.074219 16.808594 12.078125 16.6875 12.082031 16.574219 C 12.085938 16.4375 12.089844 16.308594 12.097656 16.175781 C 12.105469 16.0625 12.113281 15.945312 12.121094 15.832031 C 12.132812 15.699219 12.140625 15.5625 12.148438 15.425781 C 12.152344 15.332031 12.160156 15.238281 12.167969 15.144531 C 12.175781 14.988281 12.1875 14.828125 12.191406 14.667969 C 12.195312 14.570312 12.203125 14.472656 12.207031 14.371094 C 12.21875 14.222656 12.226562 14.066406 12.230469 13.90625 C 12.230469 13.742188 12.21875 13.585938 12.207031 13.433594 C 12.199219 13.328125 12.195312 13.234375 12.191406 13.136719 C 12.1875 13.0625 12.1875 12.992188 12.183594 12.917969 C 12.183594 12.878906 12.183594 12.84375 12.183594 12.804688 C 12.261719 12.796875 12.339844 12.789062 12.414062 12.78125 C 12.429688 12.777344 12.445312 12.777344 12.460938 12.773438 C 12.460938 12.828125 12.460938 12.878906 12.460938 12.929688 C 12.460938 12.957031 12.460938 12.984375 12.460938 13.011719 C 12.457031 13.097656 12.449219 13.183594 12.441406 13.269531 Z M 12.441406 13.269531 "/>
</g>
</svg>
