<?xml version="1.0" ?><svg enable-background="new -153.317 46.925 348.261 479.088" id="Layer_1" version="1.1" viewBox="-153.317 46.925 348.261 479.088" xml:space="preserve" xmlns="http://www.w3.org/2000/svg" xmlns:xlink="http://www.w3.org/1999/xlink"><g id="Layer_1_1_"/><g><path d="M194.646,211.535c-0.462-1.848-0.945-3.684-1.427-5.514c-1.074-4.081-2.088-7.935-2.835-11.793   c-0.864-4.464-1.533-8.925-2.242-13.647c-0.208-1.384-0.416-2.767-0.628-4.146c-0.654-4.261-1.217-8.676-1.761-12.946   c-0.215-1.692-0.431-3.384-0.652-5.073c-0.375-2.869-0.797-5.745-1.205-8.526c-0.465-3.17-0.945-6.448-1.344-9.635   c-0.33-2.639-0.536-5.342-0.755-8.203c-0.252-3.308-0.514-6.729-0.987-10.226c-0.539-3.967-1.235-7.894-1.908-11.692   c-0.384-2.16-0.768-4.325-1.122-6.5l-0.066-0.564c-0.652-5.548-1.269-10.788-2.228-16.122c-0.188-1.042-0.369-2.083-0.55-3.123   c-0.783-4.499-1.594-9.15-2.868-13.87c-1.075-3.979-2.596-7.6-4.065-11.101c-0.064-0.154-0.129-0.307-0.192-0.459   c0.018-0.242,0.026-0.485,0.026-0.73c0.115-3.889-1.578-6.399-3.019-7.819c-1.436-1.417-3.95-3.063-7.866-2.908   c-1.352,0.007-2.687,0.287-3.927,0.824c-1.562,0.677-2.817,1.579-3.791,2.621c-5.047,1.453-10.866,1.598-17.251,1.598   c-5.522,0-10,4.477-10,10c0,7.319,0.595,14.744,1.768,22.065c0.631,3.942,1.463,7.769,2.268,11.47   c0.663,3.05,1.29,5.931,1.802,8.828c1.114,6.317,1.542,12.94,1.839,19.157c0.003,0.063,0.006,0.126,0.011,0.189   c0.405,6.079,0.927,12.026,1.432,17.777l0.389,4.444c0.674,7.833,1.647,15.549,2.519,22.1c0.481,6.817,1.735,13.018,2.949,19.018   c0.193,0.955,0.384,1.909,0.573,2.864c-0.566-0.835-1.139-1.687-1.73-2.576c-1.753-2.64-3.333-5.541-5.005-8.611   c-1.176-2.16-2.393-4.394-3.721-6.624c-0.8-1.344-1.605-2.687-2.412-4.03c-2.214-3.689-4.503-7.504-6.63-11.281   c-1.513-2.688-3.093-5.344-4.62-7.912c-1.493-2.51-3.036-5.105-4.47-7.653c-2.607-4.637-5.511-9.653-9.14-15.789   c-1.15-1.945-2.24-4.013-3.395-6.201c-1.705-3.235-3.469-6.58-5.63-9.911c-0.022-0.035-0.046-0.07-0.069-0.105   c-2.18-3.271-4.383-6.151-6.514-8.936c-1.923-2.515-3.745-4.897-5.482-7.469c-0.369-0.675-0.746-1.28-1.089-1.831   c-0.217-0.348-0.518-0.831-0.694-1.156c-0.249-3.359-2.179-6.388-5.161-8.025c-3.196-1.755-7.101-1.629-10.181,0.33   c-5.547,3.53-10.982,6.913-16.5,9.5l-3.835,1.792c-4.073,1.9-8.264,3.856-12.387,5.878c-1.346,0.274-2.654,0.832-3.836,1.682   c-4.278,3.079-5.433,8.949-2.639,13.418c1.623,2.595,3.325,5.083,4.972,7.488c1.062,1.553,2.129,3.11,3.172,4.697   c0.882,1.343,1.754,2.809,2.677,4.36c1.63,2.742,3.315,5.576,5.445,8.416c1.036,1.382,2.396,2.452,3.933,3.136   c0.592,1.122,1.175,2.243,1.748,3.346c1.772,3.408,3.604,6.933,5.627,10.343c1.526,2.574,3.092,5.085,4.606,7.515   c1.938,3.108,3.768,6.044,5.498,9.063c0.875,1.525,1.767,3.047,2.662,4.575c2.375,4.054,4.619,7.883,6.659,11.963   c0.148,0.297,0.312,0.587,0.489,0.868c1.404,2.224,2.722,4.468,4.116,6.844c1.414,2.407,2.875,4.897,4.432,7.355   c1.78,2.813,3.648,5.47,5.454,8.04c1.403,1.996,2.729,3.882,3.99,5.799c0.642,0.977,1.274,1.961,1.908,2.944   c-0.457-0.236-0.922-0.469-1.371-0.708c-0.947-1.836-2.23-3.029-3.002-3.631c-0.455-0.355-0.939-0.671-1.448-0.942   c-4.867-2.596-9.205-4.957-13.002-7.557c-4.917-3.367-9.021-6.258-12.911-9.1c-1.362-0.995-2.709-2.025-4.066-3.062   c-2.945-2.25-5.99-4.576-9.423-6.783c-0.064-0.041-0.129-0.082-0.194-0.122c-7.101-4.339-12.117-7.507-16.775-10.592   c-5.948-3.94-11.687-7.541-17.548-11.008c-5.997-3.546-11.285-6.331-16.409-8.634c-2.33-3.237-5.394-4.168-7.423-4.403   c-4.785-2.798-8.687-1.444-10.606-0.37c-1.938,1.084-3.432,2.767-4.311,4.752c-1.155,1.964-2.623,4-4.167,6.144   c-1.359,1.885-2.764,3.834-4.115,5.946c-1.508,2.357-2.807,4.721-4.063,7.008c-1.303,2.371-2.533,4.61-3.874,6.622   c-0.23,0.345-0.438,0.704-0.624,1.075c-1.595,3.191-3.394,9.421,2.483,15.298c0.976,0.976,2.143,1.739,3.428,2.242   c5.514,2.157,10.916,4.924,15.546,7.348c4.747,2.485,10.236,5.401,15.314,8.565c4.813,2.999,9.742,6.198,15.069,9.779   c2.261,1.52,4.498,3.156,6.866,4.888c2.587,1.893,5.263,3.85,8.095,5.738c2.205,1.47,4.343,2.422,6.062,3.188   c1.147,0.511,2.149,0.957,2.921,1.441c5.016,3.754,10.034,7.284,14.922,10.498l0.853,0.56c4.785,3.146,9.733,6.4,14.856,9.344   c1.315,0.755,2.598,1.481,3.866,2.192c-0.631-0.187-1.275-0.324-1.929-0.384c-0.608-0.239-1.696-0.796-2.318-1.115   c-0.328-0.168-0.645-0.33-0.944-0.48c-0.498-0.249-1.017-0.456-1.549-0.619c-5.031-1.538-10.375-3.252-17.325-5.559   c-3.104-1.031-6.269-2.152-9.33-3.236c-2.676-0.948-5.346-1.893-8.024-2.8c-3.492-1.183-6.996-2.254-10.385-3.29   c-2.447-0.749-4.893-1.496-7.32-2.282c-2.136-0.692-4.245-1.423-6.477-2.197c-3.654-1.267-7.433-2.578-11.34-3.703   c-3.944-1.135-7.819-1.844-11.566-2.53c-2.441-0.447-4.747-0.869-6.984-1.389c-1.359-0.316-2.715-0.642-4.072-0.968   c-4.651-1.116-9.459-2.271-14.526-3.092c-4.62-0.749-9.146,1.81-10.886,6.158c-2.26,5.65-4.25,10.783-5.717,16.376   c-0.72,2.745-1.206,5.331-1.676,7.831c-0.493,2.62-0.958,5.094-1.629,7.333c-0.812,2.706-0.441,5.628,1.02,8.045   s3.876,4.104,6.649,4.644c3.209,0.624,6.37,1.536,9.716,2.5c2.258,0.651,4.593,1.324,7.032,1.933   c2.677,0.668,5.315,1.206,7.867,1.727c3.322,0.677,6.459,1.316,9.411,2.18c3.587,1.05,7.116,2.226,10.853,3.472   c2.041,0.68,4.081,1.36,6.128,2.018c2.592,0.833,5.2,1.619,7.723,2.379c3.274,0.987,6.367,1.919,9.453,2.951   c2.544,0.852,5.104,1.876,7.815,2.961c2.93,1.174,5.959,2.387,9.152,3.446c3.361,1.115,6.723,2.059,9.975,2.97   c2.61,0.732,5.076,1.424,7.528,2.194c0.315,0.099,0.637,0.17,0.96,0.237c-1.781-0.236-3.547-0.482-5.315-0.757   c-2.876-0.446-5.696-0.733-8.423-1.012c-2.833-0.289-5.51-0.563-8.085-0.99l-3.7-0.614c-4.278-0.712-8.559-1.424-12.843-2.112   c-2.247-0.361-4.496-0.798-6.877-1.26c-3.157-0.612-6.421-1.246-9.79-1.716c-2.001-0.279-3.996-0.604-6.108-0.949   c-3.418-0.558-6.951-1.134-10.598-1.515c-5.6-0.793-11.022-1.271-16.268-1.732c-1.509-0.133-3.015-0.266-4.516-0.405   c-7.444-0.692-14.652-0.772-22.034-0.245c-4.554,0.325-8.309,3.693-9.126,8.186c-0.155,0.853-0.313,1.699-0.471,2.543   c-0.891,4.771-1.813,9.703-2.056,15.019c-0.256,5.609,0.183,11.549,1.342,18.139c0.355,4.254,2.628,6.691,4.028,7.806   c2.629,2.092,5.838,2.743,9.543,1.942l0.099,0.002c5.647,0.155,10.982,0.303,16.257,0.79c2.93,0.272,5.98,0.863,9.209,1.49   c2.612,0.506,5.313,1.03,8.122,1.416c2.724,0.375,5.425,0.658,8.037,0.932c3.347,0.351,6.507,0.682,9.598,1.182   c2.987,0.484,5.974,0.89,8.862,1.282c0.996,0.135,1.971,0.269,2.937,0.403c-2.692-0.252-5.42-0.497-8.177-0.674   c-0.04-0.002-0.08-0.005-0.12-0.007c-4.263-0.224-8.361-0.045-12.323,0.127c-2.512,0.108-4.885,0.212-7.216,0.212   c-2.549,0-5.187-0.048-7.738-0.095c-3.72-0.067-7.566-0.139-11.439-0.069c-2.101,0.036-4.19,0.085-6.276,0.133   c-4.274,0.099-8.312,0.192-12.448,0.192c-3.263,0-6.321,1.592-8.192,4.266c-4.149,5.928-6.493,12.759-7.374,21.496   c-0.591,5.866-0.584,11.706-0.578,17.353l0.001,1.729c0,2.85,1.216,5.564,3.342,7.462s4.956,2.794,7.793,2.474   c1.761-0.201,3.521-0.428,5.28-0.654c3.978-0.511,7.735-0.994,11.374-1.165c3.027-0.144,6.192,0.009,9.544,0.167   c2.362,0.111,4.805,0.228,7.304,0.243c1.86,0.01,3.721,0.005,5.583-0.003c3.951-0.015,7.685-0.029,11.407,0.133l3.164,0.136   c4.596,0.194,9.348,0.396,13.969,0.693c2.792,0.18,5.59,0.459,8.551,0.755c2.824,0.282,5.743,0.574,8.702,0.777   c3.334,0.229,6.65,0.338,9.856,0.443c2.628,0.086,5.111,0.167,7.679,0.313c4.818,0.241,9.707,0.36,14.821,0.36   c1.817,0,3.664-0.016,5.545-0.045c6.609-0.104,13.445-0.213,20.384-0.797c1.151-0.097,2.302-0.189,3.452-0.283   c5.528-0.446,11.245-0.907,16.917-1.803c5.155-0.814,8.818-5.457,8.41-10.66c-0.247-3.143-1.929-5.852-4.372-7.505   c-0.88-2.487-1.45-5.417-1.83-9.273c-0.25-2.534-0.437-5.158-0.618-7.696c-0.111-1.567-0.226-3.166-0.354-4.751   c0.556-2.802-0.11-5.745-1.893-8.055c-0.017-0.022-0.035-0.041-0.052-0.063c0.714-0.683,1.343-1.466,1.838-2.355   c3.443-6.193,4.692-12.923,5.528-19.273c0.475-3.599,0.685-7.153,0.889-10.592c0.079-1.338,0.156-2.63,0.245-3.886   c0.499-1.387,0.696-2.902,0.529-4.454c-0.117-1.077-0.41-2.094-0.836-3.036c0.219-0.08,0.436-0.152,0.656-0.247   c3.85-1.084,6.792-4.42,7.231-8.574c0.329-3.111-0.811-6.069-2.891-8.142c0.13-1.271,0.417-2.719,0.864-4.378   c0.575-2.136,1.51-4.438,2.498-6.876c0.451-1.113,0.911-2.249,1.354-3.41c1.238-0.878,2.281-2.034,3.02-3.4   c1.292-2.39,1.523-5.198,0.736-7.749c3.433-1.867,5.478-5.568,5.199-9.486c-0.061-0.85-0.227-1.674-0.489-2.458   c1.085-2.721,2.506-5.478,4.312-8.367c1.899-3.039,3.983-6.372,5.702-10.129c0.521-0.527,0.968-1.12,1.36-1.749   c5.282-2.45,10.806-5.655,16.866-9.799c2.933-2.004,5.648-4.044,8.273-6.018c2.201-1.654,4.28-3.216,6.44-4.729   c1.026-0.718,1.884-1.621,2.565-2.639c3.33-0.177,6.837-0.468,10.777-0.897c6.663-0.726,11.963-1.243,17.187-1.678   c2.924-0.244,5.594-1.759,7.301-4.145C194.783,217.396,195.357,214.381,194.646,211.535z M56.994,238.603l-0.854-0.562   c-4.631-3.044-9.401-6.405-14.178-9.988c-0.147-0.111-0.298-0.217-0.452-0.32c-2.205-1.471-4.344-2.423-6.063-3.188   c-1.238-0.552-2.309-1.028-3.103-1.558c-2.47-1.646-4.855-3.392-7.381-5.239c-2.422-1.771-4.926-3.603-7.517-5.345   c-5.52-3.71-10.638-7.032-15.648-10.154c-5.666-3.53-11.547-6.657-16.615-9.31c-2.784-1.457-5.831-3.031-9.073-4.57   c0.123-0.223,0.244-0.444,0.366-0.666c1.149-2.091,2.234-4.066,3.382-5.861c1.051-1.644,2.236-3.287,3.49-5.027   c0.085-0.118,0.171-0.237,0.257-0.356c0.069,0.023,0.138,0.045,0.207,0.067c4.93,2.118,10.053,4.774,16.049,8.32   c5.564,3.292,11.021,6.715,16.684,10.466c6.118,4.053,12.443,7.96,17.292,10.923c2.718,1.754,5.287,3.717,8.006,5.793   c1.472,1.124,2.934,2.24,4.411,3.319c4.06,2.964,8.32,5.967,13.407,9.451c3.547,2.428,7.215,4.545,11.158,6.694   c0.813,1.531,1.867,2.613,2.683,3.294c0.397,0.332,0.82,0.633,1.265,0.9c3.561,2.135,7.104,3.889,10.533,5.585   c1.766,0.874,3.434,1.699,5.061,2.554l0.917,0.482c3.093,1.626,6.256,3.289,9.445,4.929c-0.353,0.571-0.713,1.147-1.076,1.728   c-1.83,2.929-3.386,5.799-4.693,8.666c-3.083-1.32-6.01-2.589-8.79-3.996c-4.819-2.438-9.835-5.16-15.333-8.318   C66.227,244.673,61.742,241.724,56.994,238.603z M38.926,292.871c-3.168-0.889-6.16-1.728-9.075-2.695   c-2.62-0.869-5.243-1.919-8.019-3.03c-2.856-1.144-5.81-2.326-8.905-3.361c-3.371-1.128-6.754-2.147-10.025-3.133   c-2.55-0.769-4.958-1.494-7.376-2.271c-1.978-0.636-3.95-1.293-5.922-1.951c-3.746-1.249-7.619-2.54-11.562-3.693   c-3.752-1.098-7.453-1.852-11.031-2.582c-2.45-0.5-4.765-0.971-7.021-1.534c-2.088-0.521-4.15-1.115-6.333-1.745   c-0.493-0.142-0.988-0.285-1.486-0.428c0.37-1.958,0.737-3.824,1.212-5.634c0.549-2.094,1.208-4.154,1.967-6.284   c1.691,0.386,3.4,0.796,5.147,1.216c1.402,0.336,2.803,0.673,4.207,1c2.701,0.628,5.353,1.114,7.918,1.583   c3.417,0.625,6.646,1.216,9.634,2.076c3.392,0.977,6.757,2.144,10.319,3.379c2.229,0.773,4.535,1.572,6.866,2.328   c2.534,0.82,5.084,1.601,7.637,2.381c3.397,1.039,6.607,2.02,9.816,3.107c2.59,0.877,5.173,1.792,7.762,2.709   c3.153,1.117,6.413,2.271,9.706,3.365c6.728,2.232,12,3.928,16.944,5.448l0.053,0.026c2.242,1.149,5.172,2.651,8.477,3.126   c6.143,1.988,12.147,3.448,17.745,4.731c1.722,0.395,3.428,0.732,5.109,1.042c-0.737,1.91-1.458,3.945-2.027,6.059   c-0.337,1.251-0.684,2.664-0.97,4.203c-2.138-0.38-4.215-0.762-6.288-1.185l-1.686-0.343c-6.175-1.255-12.007-2.439-18.024-4.159   c-0.716-0.204-1.452-0.328-2.194-0.369c-0.294-0.074-0.797-0.224-1.15-0.329c-1.252-0.372-2.727-0.811-4.388-1.02   C43.581,294.177,41.22,293.515,38.926,292.871z M-14.761,340.955c-3.647-0.591-7.239-0.967-10.713-1.331   c-2.566-0.269-4.991-0.522-7.394-0.854c-2.267-0.312-4.586-0.761-7.041-1.237c-3.565-0.691-7.252-1.406-11.172-1.77   c-4.352-0.403-8.697-0.598-12.964-0.734c-0.218-2.511-0.274-4.87-0.171-7.116c0.104-2.287,0.405-4.615,0.795-7.008   c3.662-0.021,7.27,0.154,11.061,0.506c1.534,0.143,3.07,0.278,4.612,0.414c5.042,0.444,10.256,0.903,15.392,1.636   c0.13,0.019,0.261,0.035,0.392,0.049c3.125,0.32,6.279,0.835,9.618,1.379c2.131,0.348,4.334,0.707,6.565,1.019   c2.843,0.396,5.708,0.952,8.742,1.541c2.431,0.472,4.945,0.96,7.512,1.372c4.25,0.684,8.495,1.39,12.737,2.095l3.707,0.616   c3.194,0.53,6.313,0.849,9.33,1.156c2.586,0.264,5.029,0.513,7.39,0.879c4.181,0.648,8.365,1.165,12.411,1.663   c1.475,0.183,2.95,0.364,4.425,0.553c2.098,0.268,4.257,0.666,6.543,1.087c3.323,0.613,6.759,1.247,10.421,1.557   c2.219,0.187,4.396,0.264,6.531,0.293c-0.129,1.822-0.283,3.584-0.508,5.289c-0.309,2.344-0.677,4.722-1.229,6.927   c-4.631-0.129-9.262-0.363-13.706-0.602c-2.034-0.109-4.07-0.211-6.107-0.313c-4.777-0.239-9.716-0.486-14.52-0.827   c-4.099-0.46-8.161-1.087-12.457-1.75c-1.602-0.247-3.203-0.493-4.806-0.731c-3.127-0.464-6.243-1.063-9.542-1.698   c-2.598-0.5-5.286-1.017-8-1.466c-3.206-0.531-6.405-0.966-9.498-1.386C-9.297,341.769-12.027,341.398-14.761,340.955z    M68.102,398.12c-1.173,0.095-2.347,0.189-3.521,0.288c-6.26,0.527-12.748,0.63-19.023,0.729   c-6.731,0.108-12.962,0.013-18.98-0.288c-2.74-0.157-5.461-0.246-8.093-0.332c-3.168-0.104-6.161-0.202-9.139-0.407   c-2.651-0.182-5.291-0.445-8.086-0.725c-3.003-0.301-6.109-0.61-9.254-0.813c-4.841-0.312-9.705-0.518-14.408-0.717l-3.141-0.134   c-3.02-0.132-6.016-0.16-8.954-0.16c-1.142,0-2.276,0.004-3.399,0.008c-1.792,0.008-3.587,0.016-5.381,0.003   c-2.089-0.013-4.224-0.114-6.484-0.221c-3.666-0.173-7.456-0.35-11.423-0.168c-2.282,0.107-4.534,0.306-6.753,0.547   c0.07-1.965,0.185-3.897,0.373-5.761c0.31-3.079,0.846-5.626,1.664-7.821c2.333-0.038,4.644-0.092,6.913-0.144   c2.049-0.048,4.102-0.095,6.164-0.132c3.518-0.058,7.018,0.004,10.725,0.07c2.641,0.048,5.371,0.098,8.102,0.098   c2.765,0,5.469-0.117,8.084-0.231c3.631-0.158,7.06-0.306,10.35-0.138c3.337,0.216,6.65,0.533,10.158,0.868   c2.68,0.256,5.451,0.521,8.225,0.734c2.67,0.207,5.325,0.487,8.137,0.783c3.423,0.36,6.962,0.733,10.553,0.966   c4.578,0.295,9.12,0.372,13.512,0.447c1.839,0.031,3.678,0.063,5.514,0.11c6.005,0.152,11.94-0.079,17.68-0.306l1.588-0.063   c1.833-0.07,3.681-0.097,5.636-0.124c0.996-0.015,1.999-0.029,3.011-0.049c0.139,1.881,0.292,3.798,0.482,5.736   c0.213,2.156,0.514,4.595,1.035,7.193C69.349,398.02,68.728,398.069,68.102,398.12z M129.248,223.375   c-3.363,2.299-6.488,4.239-9.442,5.861c-2.27-2.953-4.317-5.682-6.295-8.48c-2.051-2.9-3.955-5.861-5.973-8.996   c-0.98-1.525-1.961-3.047-2.955-4.56c-1.431-2.175-2.908-4.278-4.338-6.311c-1.746-2.485-3.396-4.832-4.918-7.236   c-1.377-2.176-2.691-4.415-4.083-6.785c-1.334-2.273-2.712-4.619-4.188-6.976c-2.273-4.502-4.709-8.66-7.068-12.685   c-0.863-1.474-1.723-2.94-2.565-4.411c-1.915-3.339-3.93-6.571-5.877-9.696c-1.457-2.336-2.963-4.753-4.376-7.136   c-1.738-2.931-3.363-6.057-5.085-9.368c-1.287-2.475-2.617-5.035-4.059-7.629c-0.08-0.144-0.163-0.286-0.25-0.425   c-0.737-1.186-2.41-3.339-5.355-4.504c-0.67-1.071-1.335-2.188-2.017-3.335c-0.995-1.673-2.024-3.404-3.154-5.123   c-0.488-0.743-0.981-1.48-1.477-2.214c1.318-0.619,2.635-1.233,3.938-1.841l3.869-1.809c3.16-1.481,6.192-3.115,9.167-4.843   c1.868,2.704,3.742,5.155,5.563,7.536c2.013,2.631,3.914,5.118,5.723,7.827c1.656,2.56,3.128,5.351,4.685,8.304   c1.216,2.305,2.472,4.688,3.871,7.054c3.553,6.007,6.388,10.903,8.922,15.412c1.553,2.761,3.159,5.461,4.713,8.073   c1.535,2.582,2.985,5.02,4.382,7.5c2.263,4.019,4.625,7.954,6.908,11.76c0.795,1.324,1.589,2.647,2.378,3.972   c1.132,1.9,2.204,3.87,3.34,5.956c1.805,3.314,3.671,6.74,5.91,10.113c4.005,6.026,7.465,10.891,10.892,15.314   c1.569,2.024,3.14,3.939,4.679,5.745C132.894,220.797,131.108,222.104,129.248,223.375z M166.424,205.722   c-2.235,0.244-4.309,0.439-6.274,0.589c-0.129-1.002-0.254-1.999-0.379-2.989c-0.726-5.741-1.409-11.163-2.509-16.758   c-0.23-1.168-0.466-2.334-0.702-3.502c-1.154-5.708-2.244-11.1-2.619-16.722c-0.015-0.219-0.036-0.438-0.065-0.656   c-0.852-6.39-1.81-13.94-2.46-21.493l-0.391-4.476c-0.493-5.618-1.003-11.427-1.394-17.265c-0.328-6.849-0.813-14.199-2.116-21.584   c-0.58-3.287-1.278-6.498-1.954-9.603c-0.78-3.592-1.519-6.984-2.062-10.381c-0.489-3.054-0.861-6.126-1.114-9.197   c2.952-0.212,5.881-0.574,8.783-1.182c0.632,1.609,1.186,3.165,1.591,4.667c1.036,3.835,1.734,7.843,2.474,12.085   c0.187,1.075,0.374,2.151,0.568,3.23c0.852,4.735,1.433,9.682,2.049,14.918l0.092,0.786c0.018,0.145,0.037,0.289,0.061,0.433   c0.381,2.343,0.794,4.676,1.206,7.003c0.668,3.768,1.3,7.326,1.783,10.889c0.395,2.915,0.623,5.9,0.864,9.06   c0.227,2.972,0.461,6.045,0.851,9.162c0.425,3.398,0.922,6.783,1.401,10.056c0.402,2.74,0.804,5.478,1.163,8.221   c0.219,1.667,0.431,3.334,0.643,5.001c0.56,4.396,1.139,8.942,1.833,13.46c0.209,1.357,0.413,2.716,0.617,4.076   c0.708,4.721,1.44,9.602,2.385,14.479c0.464,2.398,1.006,4.754,1.579,7.069C170.463,205.288,168.507,205.495,166.424,205.722z"/><path d="M146.675,331.229c-3.275,0.327-6.22,0.804-9.068,1.264c-1.833,0.296-3.565,0.576-5.333,0.81   c-3.887,0.512-8.083,0.75-13.205,0.75c-2.797,0-5.466,1.171-7.359,3.229c-1.894,2.058-2.839,4.814-2.606,7.602   c0.324,3.881,0.402,7.788,0.486,11.924c0.036,1.834,0.073,3.668,0.132,5.508c0.086,2.679,0.272,5.302,0.452,7.838   c0.243,3.418,0.473,6.646,0.448,9.773c-0.025,3.276-0.229,6.588-0.446,10.094c-0.153,2.479-0.312,5.045-0.403,7.632   c-0.128,3.57-0.348,7.1-0.581,10.836c-0.145,2.33-0.29,4.659-0.411,6.99c-0.16,3.078-0.393,6.257-0.617,9.33   c-0.205,2.805-0.417,5.705-0.58,8.6c-0.192,3.379-0.295,6.753-0.395,10.016c-0.081,2.66-0.164,5.411-0.295,8.063   c-0.193,3.88-0.267,7.752-0.338,11.496c-0.043,2.236-0.086,4.472-0.153,6.703c-0.066,2.158-0.167,4.316-0.268,6.475   c-0.033,0.704-0.066,1.412-0.098,2.124c-2.439-0.087-4.955-0.174-7.503-0.187c-2.627-0.01-5.235,0.039-7.759,0.088   c-3.321,0.064-6.459,0.126-9.578,0.053c-2.885-0.068-5.813-0.29-8.912-0.525c-2.734-0.207-5.563-0.421-8.44-0.53   c-2.974-0.112-5.95-0.337-9.101-0.574c-2.689-0.202-5.47-0.411-8.276-0.548c-3.07-0.149-6.076-0.144-8.978-0.139   c-2.958,0.005-5.752,0.01-8.479-0.142c-2.714-0.15-5.428-0.276-8.143-0.401c-3.108-0.143-6.215-0.286-9.322-0.469   c-2.769-0.163-5.519-0.4-8.431-0.652c-2.939-0.254-5.979-0.517-9.042-0.695c-3.186-0.186-6.377-0.31-9.463-0.429   c-2.695-0.104-5.389-0.208-8.082-0.354c-2.417-0.131-4.831-0.281-7.244-0.431c-3.37-0.209-6.854-0.426-10.32-0.587   c-2.491-0.115-4.956-0.279-7.566-0.454c-3.268-0.218-6.646-0.443-10.047-0.561c-0.115-0.004-0.23-0.006-0.345-0.006   c-3.481,0-6.86,0.212-10.129,0.417c-2.791,0.175-5.427,0.34-8.014,0.372c-2.182,0.025-4.364,0.003-6.671-0.024   c-3.793-0.043-7.713-0.087-11.721,0.111c-2.329,0.115-4.709,0.266-7.166,0.454c0.087-2.408,0.155-4.851,0.163-7.291   c0.011-3.486-0.138-6.906-0.283-10.213c-0.124-2.826-0.241-5.496-0.261-8.149c-0.026-3.464-0.093-6.925-0.16-10.384   c-0.051-2.64-0.103-5.277-0.135-7.914c-0.036-2.996-0.004-5.962,0.03-9.103c0.032-2.977,0.065-6.055,0.034-9.135   c-0.056-5.409-0.065-10.934-0.074-16.276l-0.003-1.896c-0.004-2.249-0.026-4.5-0.047-6.751c-0.036-3.738-0.072-7.604-0.024-11.353   c0.044-3.414,0.224-6.829,0.413-10.444c0.129-2.469,0.263-5.022,0.351-7.584c0.198-5.787,0.463-11.489,0.789-16.965   c0.052-0.516,0.079-1.05,0.079-1.603c0-5.403-4.293-9.83-9.694-9.995c-2.956-0.111-5.671,1.118-7.567,3.119   c-3.045,0.514-5.914,0.884-8.688,1.123c-4.41,0.377-9.243-0.057-12.495-0.417c-3.33-0.374-6.616,0.951-8.766,3.517   c-2.15,2.564-2.874,6.034-1.93,9.245c1.475,5.013,2.369,10.104,2.587,14.727c0.226,4.76,0.128,9.96-0.299,15.898   c-0.168,2.35-0.371,4.698-0.574,7.048c-0.285,3.298-0.579,6.709-0.781,10.134c-0.006,0.101-0.01,0.201-0.013,0.302   c-0.093,3.27-0.092,6.521-0.09,9.667c0.001,2.733,0.003,5.314-0.053,7.916l-0.087,4.045c-0.097,4.494-0.195,8.987-0.28,13.482   c-0.055,2.888-0.174,5.746-0.3,8.773c-0.118,2.835-0.24,5.768-0.303,8.703c-0.125,5.81-0.276,11.62-0.442,17.43   c-0.101,3.53-0.274,7.165-0.441,10.681c-0.106,2.229-0.213,4.46-0.303,6.692c-0.169,4.167-0.427,8.487-0.676,12.664   c-0.094,1.582-0.189,3.162-0.279,4.735c-0.1,1.743,0.259,3.481,1.04,5.042c0.469,0.938,0.41,2.081,0.137,4.871   c-0.255,2.602-0.571,5.84,0.045,9.539c0.879,5.276,5.752,8.923,11.066,8.284c7.96-0.965,13.922-1.582,19.332-2.001   c2.666-0.206,5.301-0.477,7.851-0.738c3.939-0.404,7.66-0.786,11.338-0.931c3.3-0.129,6.696-0.002,10.291,0.135   c2.925,0.11,5.948,0.218,9.04,0.199l3.867-0.038c5.099-0.052,10.371-0.105,15.518-0.029c2.959,0.045,5.916,0.018,8.775-0.007   c3.667-0.032,7.132-0.062,10.614,0.041c2.887,0.142,5.796,0.411,8.874,0.695c3.135,0.29,6.377,0.59,9.68,0.755   c3.427,0.173,6.772,0.141,10.008,0.108c3.046-0.028,5.922-0.057,8.728,0.08c2.792,0.137,5.626,0.424,8.626,0.728   c3.253,0.33,6.618,0.671,10.08,0.826c3.579,0.159,7.179,0.258,10.661,0.354c2.704,0.074,5.409,0.148,8.113,0.251   c3.545,0.135,7.013,0.074,10.365,0.016c2.938-0.052,5.714-0.101,8.455-0.022c2.704,0.076,5.434,0.27,8.322,0.475   c3.394,0.241,6.903,0.49,10.498,0.546c3.652,0.052,7.223-0.092,10.674-0.234c2.846-0.117,5.533-0.229,8.194-0.229   c2.595,0,5.282,0.183,8.128,0.376c3.057,0.208,6.205,0.422,9.47,0.422c0.435,0,0.872-0.003,1.311-0.012   c3.783-0.069,7.39-0.461,10.878-0.839c2.805-0.305,5.454-0.592,8.015-0.694c2.471-0.1,4.925-0.137,7.521-0.176   c3.688-0.056,7.501-0.114,11.378-0.363c5.263-0.339,9.357-4.706,9.357-9.979c0-3.125-0.119-6.184-0.234-9.142   c-0.109-2.793-0.212-5.432-0.219-8.069c-0.008-2.592,0.137-5.246,0.289-8.056c0.161-2.962,0.327-6.023,0.318-9.177   c-0.01-3.103-0.18-6.118-0.344-9.034c-0.161-2.849-0.313-5.538-0.313-8.165c0-2.709,0.138-5.46,0.284-8.373   c0.143-2.848,0.29-5.792,0.307-8.798c0.015-2.554-0.004-5.108-0.022-7.663c-0.023-3.125-0.047-6.357-0.002-9.481   c0.035-2.405,0.043-4.813,0.052-7.22c0.012-3.263,0.023-6.637,0.107-9.896c0.069-2.688,0.333-5.461,0.612-8.398   c0.266-2.789,0.54-5.674,0.66-8.657c0.115-2.892,0.091-5.717,0.066-8.449c-0.027-3.013-0.053-5.859,0.105-8.619   c0.191-3.332,0.49-6.65,0.807-10.163c0.204-2.271,0.409-4.544,0.584-6.82c0.02-0.255,0.029-0.511,0.029-0.767   c0-0.838-0.007-1.672-0.014-2.503c-0.038-4.586-0.071-8.547,1.133-12.157c1.072-3.217,0.44-6.758-1.677-9.406   C153.364,332.288,150.056,330.891,146.675,331.229z M135.506,364.795c-0.317,3.518-0.645,7.154-0.854,10.813   c-0.196,3.421-0.167,6.736-0.138,9.942c0.022,2.605,0.045,5.067-0.052,7.468c-0.098,2.437-0.335,4.929-0.586,7.567   c-0.299,3.144-0.607,6.396-0.696,9.773c-0.089,3.484-0.102,6.971-0.113,10.343c-0.008,2.334-0.016,4.668-0.05,7.001   c-0.048,3.342-0.023,6.686,0,9.918c0.019,2.467,0.037,4.934,0.022,7.402c-0.015,2.563-0.145,5.16-0.282,7.911   c-0.151,3.03-0.309,6.164-0.309,9.373c0,3.19,0.175,6.291,0.344,9.29c0.157,2.777,0.305,5.4,0.313,7.969   c0.008,2.579-0.137,5.228-0.289,8.032c-0.161,2.967-0.327,6.035-0.318,9.195c0.007,2.543,0.09,5.049,0.184,7.489   c-0.256,0.004-0.512,0.008-0.769,0.012c-2.605,0.04-5.3,0.081-8.019,0.189c-3.241,0.13-6.357,0.468-9.372,0.795   c-3.19,0.346-6.203,0.673-9.09,0.727c-2.873,0.052-5.875-0.151-9.055-0.368c-3.053-0.207-6.21-0.422-9.486-0.422   c-3.073,0-6.095,0.125-9.018,0.246c-3.319,0.137-6.453,0.265-9.54,0.219c-3.04-0.047-6.124-0.266-9.391-0.498   c-2.972-0.211-6.045-0.429-9.178-0.517c-3.194-0.088-6.329-0.035-9.362,0.018c-3.225,0.055-6.271,0.107-9.263-0.005   c-2.773-0.104-5.547-0.181-8.321-0.257c-3.398-0.094-6.911-0.189-10.317-0.342c-2.897-0.13-5.84-0.428-8.955-0.743   c-3.123-0.317-6.353-0.645-9.669-0.807c-3.39-0.163-6.695-0.132-9.893-0.103c-3.077,0.031-5.985,0.059-8.818-0.084   c-2.881-0.145-5.774-0.412-8.837-0.695c-3.189-0.295-6.486-0.6-9.842-0.762c-0.06-0.003-0.12-0.005-0.18-0.007   c-3.901-0.119-7.755-0.085-11.482-0.052c-2.871,0.024-5.583,0.048-8.305,0.008c-5.397-0.078-10.795-0.023-16.017,0.028   l-3.837,0.037c-2.623,0.033-5.288-0.077-8.107-0.186c-3.82-0.144-7.77-0.294-11.84-0.133c-4.304,0.17-8.517,0.602-12.59,1.02   c-2.539,0.261-4.937,0.507-7.353,0.694c-2.724,0.21-5.565,0.467-8.689,0.786c-0.023-2.348-0.327-4.946-1.288-7.711   c0.047-0.804,0.096-1.608,0.144-2.414c0.255-4.271,0.519-8.688,0.695-13.047c0.089-2.184,0.193-4.367,0.297-6.55   c0.172-3.609,0.35-7.341,0.457-11.061c0.167-5.858,0.32-11.716,0.445-17.574c0.059-2.733,0.176-5.563,0.29-8.3   c0.125-3.004,0.254-6.111,0.313-9.224c0.085-4.477,0.183-8.953,0.279-13.431l0.087-4.05c0.061-2.82,0.059-5.634,0.058-8.354   c-0.002-3.088-0.003-6.007,0.078-8.935c0.186-3.101,0.451-6.181,0.732-9.438c0.211-2.444,0.421-4.89,0.597-7.334   c0.484-6.738,0.591-12.718,0.328-18.275c-0.093-1.984-0.271-3.995-0.531-6.025c0.981-0.036,1.936-0.095,2.871-0.176   c1.165-0.1,2.34-0.219,3.529-0.357c-0.054,1.352-0.104,2.708-0.15,4.07c-0.081,2.379-0.21,4.84-0.335,7.22   c-0.191,3.649-0.389,7.423-0.438,11.23c-0.052,3.975-0.014,7.954,0.023,11.803c0.021,2.201,0.042,4.401,0.046,6.599l0.003,1.891   c0.009,5.386,0.018,10.955,0.075,16.449c0.029,2.869-0.003,5.841-0.034,8.715c-0.034,3.114-0.068,6.335-0.029,9.561   c0.033,2.686,0.085,5.372,0.137,8.06c0.065,3.38,0.131,6.762,0.157,10.146c0.023,3.017,0.153,5.994,0.279,8.873   c0.141,3.217,0.274,6.256,0.264,9.272c-0.011,3.316-0.146,6.664-0.29,10.208c-0.105,2.602-0.214,5.292-0.269,7.973   c-0.059,2.88,1.126,5.645,3.252,7.588c2.126,1.942,4.989,2.874,7.85,2.556c6.37-0.707,12.078-1.181,17.45-1.447   c3.399-0.168,6.85-0.127,10.503-0.088c2.322,0.027,4.723,0.057,7.145,0.024c3.091-0.038,6.105-0.227,9.02-0.409   c3.036-0.19,5.907-0.371,8.708-0.378c3.021,0.108,6.04,0.31,9.231,0.522c2.595,0.173,5.279,0.352,7.971,0.477   c3.308,0.153,6.713,0.365,10.006,0.57c2.467,0.152,4.935,0.306,7.402,0.439c2.793,0.151,5.591,0.261,8.39,0.369   c2.99,0.115,6.081,0.235,9.071,0.41c2.785,0.162,5.554,0.401,8.486,0.654c2.918,0.252,5.937,0.513,8.977,0.691   c3.19,0.188,6.384,0.336,9.577,0.483c2.653,0.122,5.305,0.244,7.955,0.391c3.299,0.184,6.517,0.18,9.623,0.173   c2.774-0.006,5.403-0.01,7.972,0.115c2.542,0.124,5.07,0.313,7.747,0.516c3.194,0.24,6.497,0.488,9.844,0.616   c2.503,0.095,5.021,0.285,7.688,0.487c3.218,0.244,6.546,0.496,9.951,0.576c3.553,0.083,7.054,0.016,10.44-0.051   c2.515-0.05,4.887-0.093,7.27-0.084c2.374,0.012,4.756,0.098,7.277,0.188c3.392,0.122,6.9,0.249,10.47,0.186   c4.021-0.069,7.607-2.54,9.105-6.271c0.762-1.896,0.908-3.932,0.494-5.847c0.04-3.018,0.182-6.065,0.331-9.264   c0.104-2.263,0.21-4.525,0.279-6.792c0.07-2.311,0.115-4.622,0.159-6.935c0.071-3.759,0.14-7.311,0.317-10.888   c0.14-2.844,0.227-5.69,0.311-8.443c0.1-3.277,0.193-6.373,0.371-9.491c0.154-2.733,0.36-5.551,0.56-8.275   c0.231-3.176,0.472-6.461,0.643-9.746c0.118-2.264,0.259-4.525,0.4-6.788c0.23-3.701,0.469-7.529,0.605-11.363   c0.084-2.329,0.228-4.654,0.379-7.116c0.224-3.615,0.454-7.354,0.484-11.169c0.03-3.916-0.238-7.694-0.498-11.348   c-0.175-2.453-0.34-4.77-0.412-7.056c-0.056-1.761-0.091-3.519-0.127-5.274c-0.018-0.899-0.036-1.806-0.057-2.719   c1.844-0.142,3.618-0.326,5.359-0.556c0.38-0.05,0.757-0.102,1.131-0.154c-0.013,1.262-0.003,2.492,0.008,3.688   c0.005,0.65,0.011,1.302,0.012,1.956C135.876,360.682,135.69,362.739,135.506,364.795z"/></g></svg>