<?xml version="1.0" encoding="UTF-8"?>
<svg xmlns="http://www.w3.org/2000/svg" xmlns:xlink="http://www.w3.org/1999/xlink" width="20pt" height="20pt" viewBox="0 0 20 20" version="1.1">
<g id="surface1">
<path style=" stroke:none;fill-rule:evenodd;fill:rgb(0%,0%,0%);fill-opacity:1;" d="M 9.988281 10.832031 C 8.359375 10.832031 -0.0273438 4.074219 -0.0273438 4.074219 L -0.0273438 3.332031 C -0.0273438 2.414062 0.722656 1.667969 1.640625 1.667969 L 18.332031 1.667969 C 19.253906 1.667969 20 2.414062 20 3.332031 L 19.988281 4.167969 C 19.988281 4.167969 11.691406 10.832031 9.988281 10.832031 Z M 9.988281 13.125 C 11.769531 13.125 19.988281 6.667969 19.988281 6.667969 L 20 16.667969 C 20 17.585938 19.253906 18.332031 18.332031 18.332031 L 1.640625 18.332031 C 0.722656 18.332031 -0.0273438 17.585938 -0.0273438 16.667969 L -0.0117188 6.667969 C -0.0117188 6.667969 8.359375 13.125 9.988281 13.125 Z M 9.988281 13.125 "/>
</g>
</svg>
