<?xml version="1.0" encoding="UTF-8"?>
<svg xmlns="http://www.w3.org/2000/svg" xmlns:xlink="http://www.w3.org/1999/xlink" width="20pt" height="20pt" viewBox="0 0 20 20" version="1.1">
<g id="surface1">
<path style=" stroke:none;fill-rule:evenodd;fill:rgb(0%,0%,0%);fill-opacity:1;" d="M 7.140625 15 L 7.140625 8.316406 L 4.996094 8.316406 L 4.996094 15 Z M 6.148438 7.304688 C 6.863281 7.304688 7.308594 6.792969 7.308594 6.152344 C 7.296875 5.5 6.863281 5 6.160156 5 C 5.457031 5 5 5.5 5 6.152344 C 5 6.792969 5.445312 7.304688 6.132812 7.304688 Z M 6.148438 7.304688 "/>
<path style=" stroke:none;fill-rule:evenodd;fill:rgb(0%,0%,0%);fill-opacity:1;" d="M 12.523438 8.164062 C 11.386719 8.164062 10.898438 8.804688 10.585938 9.25 L 10.585938 8.320312 L 8.4375 8.320312 L 8.4375 15 L 10.585938 15 L 10.585938 11.195312 C 10.585938 11 10.601562 10.804688 10.660156 10.667969 C 10.816406 10.277344 11.167969 9.875 11.761719 9.875 C 12.539062 9.875 12.851562 10.472656 12.851562 11.347656 L 12.851562 15 L 15 15 L 15 11.097656 C 15 9.09375 13.9375 8.164062 12.523438 8.164062 Z M 12.523438 8.164062 "/>
<path style=" stroke:none;fill-rule:nonzero;fill:rgb(0%,0%,0%);fill-opacity:1;" d="M 16.296875 2.5 L 3.78125 2.5 C 3.097656 2.5 2.5 2.992188 2.5 3.667969 L 2.5 16.210938 C 2.5 16.890625 3.097656 17.496094 3.78125 17.496094 L 16.292969 17.496094 C 16.980469 17.496094 17.496094 16.886719 17.496094 16.210938 L 17.496094 3.667969 C 17.5 2.992188 16.980469 2.5 16.296875 2.5 Z M 16.171875 16.25 C 16.128906 16.25 3.941406 16.25 3.871094 16.25 C 3.800781 16.25 3.75 16.195312 3.75 16.128906 C 3.75 16.0625 3.75 3.871094 3.75 3.828125 C 3.75 3.785156 3.789062 3.75 3.828125 3.75 C 3.867188 3.75 16.132812 3.75 16.171875 3.75 C 16.210938 3.75 16.25 3.789062 16.25 3.828125 C 16.25 4.738281 16.25 16.128906 16.25 16.171875 C 16.25 16.207031 16.214844 16.25 16.171875 16.25 Z M 16.171875 16.25 "/>
</g>
</svg>
