<?xml version="1.0" encoding="UTF-8"?>
<svg xmlns="http://www.w3.org/2000/svg" xmlns:xlink="http://www.w3.org/1999/xlink" width="20pt" height="20pt" viewBox="0 0 20 20" version="1.1">
<g id="surface1">
<path style=" stroke:none;fill-rule:nonzero;fill:rgb(0%,0%,0%);fill-opacity:1;" d="M 8.910156 7.21875 L 13.449219 7.21875 C 14.320312 7.21875 14.996094 7.945312 14.996094 8.765625 L 14.996094 8.910156 C 14.996094 9.730469 14.320312 10.457031 13.449219 10.457031 L 8.910156 10.457031 L 8.910156 11.617188 C 8.910156 11.617188 8.910156 11.664062 8.910156 11.710938 C 8.910156 12.4375 9.296875 13.210938 10.164062 13.355469 L 13.449219 13.355469 C 14.320312 13.355469 14.996094 14.078125 14.996094 14.898438 L 14.996094 15.042969 C 14.996094 15.914062 14.320312 16.589844 13.449219 16.589844 L 10.070312 16.589844 C 9.972656 16.589844 9.925781 16.589844 9.828125 16.589844 L 9.730469 16.589844 C 9.636719 16.589844 9.585938 16.589844 9.488281 16.589844 C 7.171875 16.347656 5.722656 14.320312 5.675781 11.710938 C 5.675781 11.710938 5.675781 11.664062 5.675781 11.617188 L 5.675781 5.722656 C 5.675781 4.851562 6.398438 4.175781 7.21875 4.175781 L 7.363281 4.175781 C 8.1875 4.175781 8.910156 4.851562 8.910156 5.722656 Z M 8.910156 7.21875 "/>
</g>
</svg>
